<?xml version="1.0" encoding="UTF-8" standalone="no"?>
<!-- Generator: Adobe Illustrator 15.1.0, SVG Export Plug-In . SVG Version: 6.00 Build 0)  -->

<svg
   xmlns:dc="http://purl.org/dc/elements/1.1/"
   xmlns:cc="http://creativecommons.org/ns#"
   xmlns:rdf="http://www.w3.org/1999/02/22-rdf-syntax-ns#"
   xmlns:svg="http://www.w3.org/2000/svg"
   xmlns="http://www.w3.org/2000/svg"
   xmlns:sodipodi="http://sodipodi.sourceforge.net/DTD/sodipodi-0.dtd"
   xmlns:inkscape="http://www.inkscape.org/namespaces/inkscape"
   version="1.1"
   id="Layer_1"
   x="0px"
   y="0px"
   width="951"
   height="107"
   viewBox="0 0 950.99996 107"
   enable-background="new 0 0 1080.618 213.688"
   xml:space="preserve"
   inkscape:version="0.48.4 r9939"
   sodipodi:docname="logo-monash-1-line.svg"><metadata
   id="metadata3783"><rdf:RDF><cc:Work
       rdf:about=""><dc:format>image/svg+xml</dc:format><dc:type
         rdf:resource="http://purl.org/dc/dcmitype/StillImage" /></cc:Work></rdf:RDF></metadata><defs
   id="defs3781" /><sodipodi:namedview
   pagecolor="#ffffff"
   bordercolor="#666666"
   borderopacity="1"
   objecttolerance="10"
   gridtolerance="10"
   guidetolerance="10"
   inkscape:pageopacity="0"
   inkscape:pageshadow="2"
   inkscape:window-width="1680"
   inkscape:window-height="988"
   id="namedview3779"
   showgrid="false"
   inkscape:zoom="1.0586534"
   inkscape:cx="463.66184"
   inkscape:cy="149.32871"
   inkscape:window-x="1358"
   inkscape:window-y="-8"
   inkscape:window-maximized="1"
   inkscape:current-layer="Layer_1" />
<rect
   width="1080.618"
   height="213.688"
   id="rect3557"
   x="-1.6940659e-021"
   y="-106.688"
   style="fill:#ffffff" />
<g
   id="g3559"
   transform="translate(-58.068931,-69.395268)">
	<g
   id="g3561">
		<path
   d="m 71.359,107.396 c 0,1.955 -0.209,17.061 9.251,32.67 8.501,14.1 21.163,20.305 26.561,22.262 5.458,-1.957 18.112,-8.162 26.608,-22.262 9.476,-15.609 9.249,-30.715 9.249,-32.67 V 70.652 l -71.67,-0.003 v 36.747 z"
   id="path3563"
   inkscape:connector-curvature="0"
   style="fill:#1c4a92" />
		<g
   id="g3565">
			<path
   d="m 147.318,124.664 -0.349,1.187 c -0.419,1.411 -0.885,2.784 -1.373,4.104 l -3.089,-2.781 -0.377,1.122 c -1.651,4.876 -3.792,9.47 -6.38,13.608 -6.732,10.775 -16.242,18.637 -27.427,22.724 0,0 -0.806,0.284 -1.152,0.407 -0.318,-0.123 -1.112,-0.407 -1.112,-0.407 -11.18,-4.097 -20.678,-11.948 -27.412,-22.724 -2.584,-4.121 -4.758,-8.715 -6.38,-13.608 l -0.379,-1.122 -0.893,0.789 -2.186,1.973 c -0.482,-1.316 -0.958,-2.668 -1.381,-4.085 l -0.344,-1.183 -0.908,0.828 -7.722,6.963 0.141,0.467 c 1.829,5.896 4.847,11.947 7.086,15.972 l 0.451,0.845 3.211,-2.868 c 0.121,0.213 0.222,0.446 0.355,0.652 7.996,12.78 19.319,22.122 32.743,27.028 l 4.729,1.74 4.792,-1.74 c 13.426,-4.912 24.72,-14.248 32.721,-27.016 0.126,-0.209 0.246,-0.452 0.373,-0.66 l 3.163,2.863 0.479,-0.845 c 2.232,-3.987 5.241,-9.991 7.081,-15.976 l 0.144,-0.463 -8.605,-7.794 z"
   id="path3567"
   inkscape:connector-curvature="0"
   style="fill:#1c4a92" />
		</g>
		<g
   id="g3569">
			<path
   d="m 137.011,86.797 c 0,0.509 -0.125,1.006 -0.333,1.429 -0.113,0.26 -0.304,0.5 -0.525,0.713 -0.304,0.135 -0.598,0.309 -0.853,0.527 -0.02,-0.117 -0.04,-0.245 -0.04,-0.354 0,-0.524 0.11,-0.999 0.35,-1.434 0.293,-0.574 0.792,-1.002 1.347,-1.315 0.021,0.141 0.054,0.291 0.054,0.434 z"
   id="path3571"
   inkscape:connector-curvature="0"
   style="fill:#ffffff" />
			<path
   d="m 131.186,96.51 0,0 c 0.628,-0.09 1.262,0.041 1.817,0.329 -0.44,0.467 -1.002,0.784 -1.634,0.878 -0.631,0.094 -1.28,-0.045 -1.89,-0.32 0.504,-0.46 1.071,-0.792 1.707,-0.887 z"
   id="path3573"
   inkscape:connector-curvature="0"
   style="fill:#ffffff" />
			<path
   d="m 128.106,97.479 c -0.005,-0.049 -0.01,-0.096 -0.01,-0.145 0,-0.599 0.156,-1.156 0.461,-1.635 l 0.009,-0.003 c 0.322,-0.513 0.79,-0.884 1.386,-1.144 0.012,0.057 0.021,0.118 0.021,0.17 0,0.588 -0.158,1.115 -0.458,1.594 -0.298,0.545 -0.799,0.913 -1.409,1.163 z"
   id="path3575"
   inkscape:connector-curvature="0"
   style="fill:#ffffff" />
			<path
   d="m 130.477,94.146 c 0.215,-0.373 0.524,-0.69 0.897,-0.978 0.076,0.288 0.181,0.575 0.181,0.849 0,0.325 -0.051,0.641 -0.155,0.947 -0.145,0.426 -0.411,0.781 -0.76,1.112 -0.122,0.035 -0.256,0.081 -0.387,0.136 -0.007,-0.03 -0.016,-0.057 -0.021,-0.087 0.257,-0.591 0.339,-1.266 0.245,-1.979 z"
   id="path3577"
   inkscape:connector-curvature="0"
   style="fill:#ffffff" />
			<path
   d="m 131.823,92.625 c 0.127,-0.425 0.354,-0.81 0.66,-1.181 0.273,0.483 0.442,0.989 0.442,1.513 0,0.08 0,0.163 -0.009,0.242 -0.03,0.453 -0.2,0.86 -0.454,1.26 -0.133,0.071 -0.261,0.15 -0.379,0.237 -0.01,-0.023 -0.025,-0.05 -0.034,-0.076 0.113,-0.654 0.042,-1.319 -0.226,-1.995 z"
   id="path3579"
   inkscape:connector-curvature="0"
   style="fill:#ffffff" />
			<path
   d="m 132.772,90.806 c 0.021,-0.443 0.145,-0.857 0.307,-1.279 0.447,0.475 0.765,1.005 0.855,1.606 0.015,0.139 0.027,0.273 0.027,0.407 0,0.312 -0.066,0.611 -0.178,0.912 -0.107,0.105 -0.21,0.21 -0.302,0.324 -0.026,-0.026 -0.042,-0.05 -0.057,-0.076 -0.055,-0.662 -0.286,-1.293 -0.652,-1.894 z"
   id="path3581"
   inkscape:connector-curvature="0"
   style="fill:#ffffff" />
			<path
   d="m 133.219,88.83 c -0.043,-0.204 -0.068,-0.404 -0.068,-0.611 0,-0.213 0.068,-0.453 0.121,-0.687 0.541,0.358 0.978,0.788 1.202,1.343 0.143,0.36 0.213,0.746 0.213,1.124 0,0.061 -0.015,0.112 -0.02,0.172 -0.096,0.13 -0.169,0.266 -0.243,0.405 -0.026,-0.02 -0.051,-0.036 -0.074,-0.057 -0.2,-0.608 -0.581,-1.191 -1.131,-1.689 z"
   id="path3583"
   inkscape:connector-curvature="0"
   style="fill:#ffffff" />
			<path
   d="m 133.257,86.839 c -0.196,-0.415 -0.284,-0.841 -0.287,-1.332 0.603,0.234 1.143,0.583 1.498,1.059 0.256,0.355 0.417,0.77 0.492,1.23 -0.055,0.143 -0.099,0.294 -0.133,0.438 -0.035,-0.011 -0.061,-0.02 -0.093,-0.028 -0.336,-0.557 -0.852,-1.039 -1.477,-1.367 z"
   id="path3585"
   inkscape:connector-curvature="0"
   style="fill:#ffffff" />
			<path
   d="m 134.662,85.859 c -0.041,-0.004 -0.076,-0.012 -0.116,-0.02 -0.447,-0.457 -1.038,-0.8 -1.689,-0.995 -0.271,-0.339 -0.45,-0.735 -0.573,-1.188 0.639,0.075 1.184,0.276 1.639,0.671 0.334,0.275 0.584,0.67 0.764,1.113 -0.02,0.139 -0.025,0.279 -0.025,0.419 z"
   id="path3587"
   inkscape:connector-curvature="0"
   style="fill:#ffffff" />
			<path
   d="m 133.88,83.618 c -0.564,-0.365 -1.176,-0.562 -1.918,-0.58 -0.351,-0.286 -0.636,-0.641 -0.875,-1.067 0.656,-0.067 1.272,0.026 1.827,0.308 0.356,0.208 0.687,0.503 0.948,0.883 0.018,0.147 0.045,0.298 0.08,0.449 -0.019,0.003 -0.041,0.003 -0.062,0.007 z"
   id="path3589"
   inkscape:connector-curvature="0"
   style="fill:#ffffff" />
			<path
   d="m 132.645,96.077 c -0.315,-0.09 -0.644,-0.143 -0.958,-0.146 0.357,-0.505 0.817,-0.934 1.325,-1.166 l 0,0 c 0.593,-0.243 1.247,-0.253 1.9,-0.115 -0.367,0.562 -0.83,0.998 -1.427,1.224 -0.288,0.119 -0.547,0.183 -0.84,0.203 z"
   id="path3591"
   inkscape:connector-curvature="0"
   style="fill:#ffffff" />
			<path
   d="m 134.366,93.996 c -0.337,-0.016 -0.672,0.01 -0.997,0.083 0.235,-0.581 0.581,-1.108 1.079,-1.46 v -0.002 c 0.505,-0.37 1.142,-0.559 1.831,-0.578 -0.234,0.656 -0.594,1.221 -1.107,1.584 -0.25,0.158 -0.52,0.278 -0.806,0.373 z"
   id="path3593"
   inkscape:connector-curvature="0"
   style="fill:#ffffff" />
			<path
   d="m 136.25,91.017 c -0.197,0.229 -0.439,0.42 -0.706,0.577 -0.321,0.064 -0.634,0.161 -0.916,0.29 0.081,-0.619 0.288,-1.206 0.683,-1.688 0.415,-0.451 1,-0.759 1.601,-0.933 -0.078,0.677 -0.248,1.272 -0.662,1.754 z"
   id="path3595"
   inkscape:connector-curvature="0"
   style="fill:#ffffff" />
			<path
   d="m 136.578,84.719 c 0,0.239 -0.027,0.48 -0.086,0.713 -0.062,0.293 -0.197,0.569 -0.367,0.822 -0.264,0.19 -0.5,0.427 -0.699,0.695 -0.136,-0.374 -0.231,-0.721 -0.231,-1.094 0,-0.242 0.035,-0.487 0.096,-0.724 0.152,-0.615 0.535,-1.135 1.038,-1.595 0.148,0.404 0.249,0.806 0.249,1.183 z"
   id="path3597"
   inkscape:connector-curvature="0"
   style="fill:#ffffff" />
			<path
   d="m 134.379,82.722 c 0,-0.604 0.249,-1.207 0.626,-1.776 0.376,0.554 0.615,1.164 0.615,1.788 0,0.003 0,0.007 0,0.01 0,0.301 -0.071,0.599 -0.164,0.882 -0.21,0.257 -0.38,0.539 -0.516,0.823 -0.343,-0.524 -0.562,-1.097 -0.562,-1.701 0.001,-0.008 0.001,-0.026 0.001,-0.026 z"
   id="path3599"
   inkscape:connector-curvature="0"
   style="fill:#ffffff" />
			<path
   d="m 133.111,78.732 c 0.502,0.444 0.882,0.984 1.027,1.603 0.045,0.222 0.079,0.434 0.079,0.652 0,0.068 -0.011,0.135 -0.018,0.194 -0.148,0.318 -0.266,0.642 -0.319,0.974 -0.455,-0.439 -0.814,-0.957 -0.922,-1.526 -0.035,-0.226 -0.057,-0.456 -0.057,-0.686 0,-0.408 0.072,-0.823 0.21,-1.211 z"
   id="path3601"
   inkscape:connector-curvature="0"
   style="fill:#ffffff" />
			<path
   d="m 132.756,81.558 c -0.022,0.012 -0.055,0.017 -0.089,0.027 -0.633,-0.218 -1.327,-0.263 -2.036,-0.12 -0.398,-0.192 -0.768,-0.483 -1.082,-0.818 0.625,-0.226 1.262,-0.28 1.851,-0.135 0.434,0.112 0.822,0.324 1.17,0.629 0.059,0.144 0.127,0.286 0.186,0.417 z"
   id="path3603"
   inkscape:connector-curvature="0"
   style="fill:#ffffff" />
			<path
   d="m 130.803,77.021 c 0.597,0.313 1.089,0.749 1.374,1.332 0.129,0.256 0.213,0.524 0.27,0.795 -0.073,0.337 -0.104,0.678 -0.088,1.022 -0.555,-0.33 -1.023,-0.749 -1.31,-1.28 -0.204,-0.417 -0.304,-0.89 -0.304,-1.386 0.001,-0.166 0.041,-0.33 0.058,-0.483 z"
   id="path3605"
   inkscape:connector-curvature="0"
   style="fill:#ffffff" />
			<path
   d="m 130.11,78.247 c 0.065,0.052 0.128,0.112 0.19,0.172 0.068,0.249 0.144,0.478 0.262,0.706 v 0.007 c 0.121,0.23 0.274,0.449 0.448,0.657 -0.597,-0.042 -1.151,-0.218 -1.621,-0.547 -0.483,-0.366 -0.842,-0.919 -1.072,-1.561 0.686,0.007 1.266,0.199 1.793,0.566 z"
   id="path3607"
   inkscape:connector-curvature="0"
   style="fill:#ffffff" />
			<path
   d="m 121.603,91.94 c 0.356,0 0.673,0.321 0.673,0.721 0,0.109 -0.044,0.222 -0.079,0.287 -0.061,0.128 -0.102,0.274 0.164,0.274 h 0.963 V 81.047 c 0,-1.669 0.132,-3.638 1.09,-5.572 l 0.276,-0.542 0.276,0.542 c 0.914,1.956 1.048,3.916 1.048,5.572 v 12.174 h 0.958 c 0.269,0 0.223,-0.146 0.16,-0.274 -0.032,-0.064 -0.072,-0.178 -0.072,-0.287 0,-0.4 0.321,-0.721 0.72,-0.721 0.407,0 0.726,0.351 0.726,0.744 0,0.5 -0.385,1.014 -1.285,1.014 h -1.588 c 0.231,0.599 0.367,1.429 0.367,2.314 0,1.144 -0.224,2.131 -0.526,2.753 1.172,-0.188 2.09,-0.48 2.919,-0.936 l 0.078,-0.047 0.221,0.519 -0.06,0.036 c -0.75,0.417 -1.511,0.603 -2.416,0.817 0,0 -0.648,0.122 -1.09,0.201 0.123,0.117 0.188,0.278 0.188,0.471 0,0.358 -0.279,0.644 -0.659,0.644 -0.364,0 -0.668,-0.286 -0.668,-0.644 0,-0.193 0.085,-0.354 0.201,-0.471 -0.476,-0.083 -1.154,-0.201 -1.174,-0.201 -0.867,-0.214 -1.571,-0.4 -2.328,-0.817 l -0.062,-0.036 0.23,-0.519 0.072,0.047 c 0.852,0.461 1.758,0.759 2.979,0.947 -0.351,-0.625 -0.572,-1.617 -0.572,-2.764 0,-0.885 0.136,-1.715 0.364,-2.314 h -1.587 c -0.846,0 -1.24,-0.524 -1.24,-1.014 0,-0.392 0.335,-0.743 0.733,-0.743 z"
   id="path3609"
   inkscape:connector-curvature="0"
   style="fill:#ffffff" />
			<path
   d="m 119.102,96.123 c -0.004,0.033 -0.009,0.06 -0.018,0.09 -0.127,-0.055 -0.253,-0.101 -0.394,-0.136 -0.34,-0.335 -0.585,-0.686 -0.706,-1.116 -0.098,-0.302 -0.155,-0.618 -0.155,-0.943 0,-0.274 0.102,-0.562 0.176,-0.852 0.329,0.287 0.639,0.607 0.854,0.98 -0.099,0.713 -0.011,1.388 0.243,1.977 z"
   id="path3611"
   inkscape:connector-curvature="0"
   style="fill:#ffffff" />
			<path
   d="m 117.426,83.038 c -0.736,0.015 -1.401,0.215 -1.959,0.58 -0.024,-0.004 -0.047,-0.004 -0.075,-0.007 0.043,-0.151 0.071,-0.302 0.088,-0.449 0.267,-0.38 0.591,-0.675 0.989,-0.883 0.555,-0.286 1.176,-0.377 1.78,-0.311 -0.207,0.429 -0.479,0.784 -0.823,1.07 z"
   id="path3613"
   inkscape:connector-curvature="0"
   style="fill:#ffffff" />
			<path
   d="m 117.348,94.621 c -0.015,0.025 -0.028,0.053 -0.04,0.076 -0.124,-0.086 -0.244,-0.166 -0.377,-0.241 -0.255,-0.396 -0.423,-0.803 -0.463,-1.259 -0.008,-0.083 -0.014,-0.158 -0.014,-0.239 0,-0.523 0.177,-1.029 0.443,-1.512 0.314,0.371 0.544,0.752 0.662,1.181 -0.267,0.674 -0.332,1.339 -0.211,1.994 z"
   id="path3615"
   inkscape:connector-curvature="0"
   style="fill:#ffffff" />
			<path
   d="m 115.406,91.134 c 0.092,-0.601 0.415,-1.132 0.852,-1.606 0.21,0.422 0.346,0.836 0.358,1.274 -0.412,0.605 -0.651,1.236 -0.699,1.9 -0.02,0.026 -0.036,0.049 -0.058,0.076 -0.098,-0.114 -0.198,-0.219 -0.309,-0.324 -0.101,-0.301 -0.175,-0.601 -0.175,-0.912 0,-0.135 0.012,-0.269 0.031,-0.408 z"
   id="path3617"
   inkscape:connector-curvature="0"
   style="fill:#ffffff" />
			<path
   d="m 114.985,90.519 c -0.016,0.02 -0.04,0.037 -0.073,0.057 -0.068,-0.14 -0.148,-0.275 -0.23,-0.41 -0.011,-0.055 -0.029,-0.111 -0.029,-0.167 0,-0.378 0.071,-0.763 0.217,-1.124 0.22,-0.555 0.661,-0.988 1.196,-1.343 0.045,0.234 0.118,0.474 0.118,0.687 0,0.207 -0.024,0.407 -0.073,0.611 -0.539,0.494 -0.918,1.081 -1.126,1.689 z"
   id="path3619"
   inkscape:connector-curvature="0"
   style="fill:#ffffff" />
			<path
   d="m 115.428,84.328 c 0.44,-0.396 1.033,-0.597 1.683,-0.671 -0.132,0.453 -0.313,0.849 -0.581,1.185 -0.7,0.199 -1.282,0.542 -1.742,0.999 -0.038,0.004 -0.072,0.016 -0.099,0.02 0,-0.14 -0.014,-0.28 -0.025,-0.418 0.163,-0.452 0.419,-0.84 0.764,-1.115 z"
   id="path3621"
   inkscape:connector-curvature="0"
   style="fill:#ffffff" />
			<path
   d="m 114.878,86.567 c 0.347,-0.476 0.878,-0.825 1.507,-1.059 -0.007,0.485 -0.105,0.917 -0.304,1.324 -0.63,0.335 -1.136,0.817 -1.482,1.369 -0.03,0.015 -0.06,0.023 -0.077,0.034 -0.033,-0.143 -0.075,-0.294 -0.127,-0.438 0.067,-0.46 0.219,-0.875 0.483,-1.23 z"
   id="path3623"
   inkscape:connector-curvature="0"
   style="fill:#ffffff" />
			<path
   d="m 114.713,91.884 c -0.269,-0.129 -0.542,-0.226 -0.861,-0.29 -0.272,-0.157 -0.511,-0.347 -0.716,-0.581 -0.419,-0.478 -0.635,-1.072 -0.713,-1.75 0.658,0.174 1.242,0.48 1.651,0.933 0.365,0.482 0.555,1.069 0.639,1.688 z"
   id="path3625"
   inkscape:connector-curvature="0"
   style="fill:#ffffff" />
			<path
   d="m 114.895,92.616 0.005,0.002 c 0.493,0.352 0.831,0.875 1.071,1.46 -0.323,-0.073 -0.658,-0.098 -1,-0.083 -0.282,-0.095 -0.537,-0.214 -0.759,-0.377 -0.509,-0.359 -0.87,-0.925 -1.096,-1.581 0.685,0.016 1.286,0.204 1.779,0.579 z"
   id="path3627"
   inkscape:connector-curvature="0"
   style="fill:#ffffff" />
			<path
   d="m 116.325,94.765 0,0 c 0.561,0.232 1.023,0.66 1.382,1.166 -0.326,0.003 -0.643,0.056 -0.962,0.146 -0.306,-0.02 -0.607,-0.084 -0.89,-0.204 -0.599,-0.226 -1.061,-0.661 -1.41,-1.224 0.638,-0.138 1.285,-0.127 1.88,0.116 z"
   id="path3629"
   inkscape:connector-curvature="0"
   style="fill:#ffffff" />
			<path
   d="m 118.17,96.51 h 0.005 c 0.615,0.095 1.179,0.426 1.676,0.887 -0.601,0.271 -1.245,0.414 -1.844,0.32 -0.615,-0.094 -1.18,-0.411 -1.678,-0.878 0.615,-0.288 1.248,-0.419 1.841,-0.329 z"
   id="path3631"
   inkscape:connector-curvature="0"
   style="fill:#ffffff" />
			<path
   d="m 119.822,96.317 c -0.294,-0.479 -0.45,-1.005 -0.45,-1.594 0,-0.057 0.013,-0.113 0.015,-0.17 0.601,0.259 1.108,0.63 1.448,1.144 V 95.7 c 0.301,0.475 0.454,1.036 0.454,1.635 0,0.049 -0.004,0.096 -0.004,0.145 -0.615,-0.251 -1.128,-0.619 -1.463,-1.163 z"
   id="path3633"
   inkscape:connector-curvature="0"
   style="fill:#ffffff" />
			<path
   d="m 118.785,79.125 c 0.106,-0.228 0.188,-0.457 0.248,-0.706 0.065,-0.06 0.13,-0.121 0.203,-0.172 0.523,-0.371 1.154,-0.559 1.833,-0.566 -0.234,0.642 -0.592,1.194 -1.117,1.561 -0.474,0.325 -1.023,0.505 -1.622,0.547 0.164,-0.208 0.322,-0.426 0.448,-0.657 l 0.007,-0.007 z"
   id="path3635"
   inkscape:connector-curvature="0"
   style="fill:#ffffff" />
			<path
   d="m 117.212,78.352 c 0.284,-0.585 0.773,-1.019 1.327,-1.332 0.02,0.154 0.06,0.317 0.06,0.482 0,0.497 -0.109,0.969 -0.321,1.386 -0.242,0.532 -0.688,0.951 -1.245,1.28 0.018,-0.344 -0.013,-0.685 -0.085,-1.022 0.049,-0.27 0.136,-0.538 0.264,-0.794 z"
   id="path3637"
   inkscape:connector-curvature="0"
   style="fill:#ffffff" />
			<path
   d="m 116.81,81.142 c 0.347,-0.306 0.736,-0.518 1.175,-0.629 0.554,-0.145 1.177,-0.09 1.795,0.135 -0.309,0.335 -0.679,0.626 -1.075,0.818 -0.675,-0.144 -1.354,-0.098 -1.987,0.12 -0.029,-0.011 -0.057,-0.015 -0.086,-0.027 0.073,-0.132 0.123,-0.274 0.178,-0.417 z"
   id="path3639"
   inkscape:connector-curvature="0"
   style="fill:#ffffff" />
			<path
   d="m 115.203,80.334 c 0.14,-0.617 0.519,-1.165 1.025,-1.602 0.15,0.388 0.257,0.803 0.257,1.21 0,0.23 -0.017,0.459 -0.075,0.686 -0.136,0.569 -0.484,1.081 -0.947,1.526 -0.061,-0.332 -0.176,-0.656 -0.329,-0.974 -0.007,-0.059 -0.007,-0.134 -0.007,-0.194 0,-0.217 0.024,-0.429 0.076,-0.652 z"
   id="path3641"
   inkscape:connector-curvature="0"
   style="fill:#ffffff" />
			<path
   d="m 113.773,82.733 c 0,-0.624 0.231,-1.234 0.585,-1.788 0.358,0.569 0.597,1.169 0.597,1.776 0,0 0,0.019 0,0.026 0,0.604 -0.216,1.177 -0.54,1.7 -0.116,-0.283 -0.27,-0.564 -0.479,-0.822 -0.103,-0.283 -0.163,-0.581 -0.163,-0.882 0,-0.003 0,-0.006 0,-0.01 z"
   id="path3643"
   inkscape:connector-curvature="0"
   style="fill:#ffffff" />
			<path
   d="m 113.055,83.536 c 0.51,0.46 0.89,0.98 1.051,1.595 0.057,0.237 0.085,0.482 0.085,0.724 0,0.373 -0.091,0.72 -0.222,1.094 -0.196,-0.268 -0.442,-0.514 -0.705,-0.695 -0.166,-0.252 -0.295,-0.528 -0.373,-0.822 -0.058,-0.233 -0.091,-0.474 -0.091,-0.713 0,-0.377 0.109,-0.783 0.255,-1.183 z"
   id="path3645"
   inkscape:connector-curvature="0"
   style="fill:#ffffff" />
			<path
   d="m 112.39,86.363 c 0.597,0.309 1.1,0.742 1.395,1.315 0.228,0.435 0.346,0.909 0.346,1.434 0,0.11 -0.025,0.237 -0.04,0.35 -0.261,-0.214 -0.548,-0.391 -0.857,-0.523 -0.221,-0.213 -0.404,-0.453 -0.545,-0.713 -0.244,-0.423 -0.355,-0.92 -0.355,-1.429 -0.001,-0.143 0.035,-0.293 0.056,-0.434 z"
   id="path3647"
   inkscape:connector-curvature="0"
   style="fill:#ffffff" />
		</g>
		<path
   d="m 125.445,81.047 c 0,-1.384 -0.131,-2.988 -0.754,-4.592 v 16.021 h 0.754 V 81.047 z"
   id="path3649"
   inkscape:connector-curvature="0"
   style="fill:#1c4a92" />
		<g
   id="g3651">
			<path
   d="m 95.279,94.156 c 1.271,0.334 2.633,0.665 3.976,0.571 0,-0.664 0,-14.061 0,-16.477 0,-0.174 0,-0.295 0,-0.347 -1.441,0.09 -2.853,-0.256 -4.173,-0.603 -1.182,-0.288 -2.305,-0.569 -3.293,-0.524 l 0,0 c -1.408,0.043 -2.152,0.448 -2.631,0.867 v 0.607 16.065 c 0.715,-0.454 1.538,-0.678 2.606,-0.708 1.102,-0.045 2.267,0.234 3.515,0.549 z"
   id="path3653"
   inkscape:connector-curvature="0"
   style="fill:#ffffff" />
			<path
   d="m 85.776,93.607 c 1.063,0.03 1.885,0.255 2.594,0.711 V 78.25 77.643 c -0.488,-0.434 -1.219,-0.823 -2.627,-0.867 -1.015,-0.045 -2.107,0.236 -3.291,0.524 -1.341,0.347 -2.721,0.693 -4.164,0.603 0,0.052 0,0.173 0,0.347 0,2.416 0,15.813 0,16.477 1.335,0.094 2.675,-0.237 3.968,-0.571 1.243,-0.315 2.397,-0.594 3.52,-0.549 z"
   id="path3655"
   inkscape:connector-curvature="0"
   style="fill:#ffffff" />
			<path
   d="m 101.372,78.25 h -1.081 l 0.093,0.375 c 0.009,0.028 0.015,0.08 0.015,0.117 v 17.314 c -0.849,0 -10.212,-0.021 -10.733,-0.021 -0.193,0.328 -0.428,0.385 -0.923,0.385 -0.452,0 -0.65,-0.057 -0.846,-0.385 -0.476,0 -9.098,0.021 -10.785,0.021 V 78.742 c 0,-0.037 0,-0.089 0.009,-0.123 l 0.094,-0.369 h -1.453 v 19.154 c 0,0 11.222,0 11.568,0 0.242,0.46 0.747,0.833 1.413,0.833 0.715,0 1.219,-0.373 1.468,-0.833 0.349,0 11.569,0 11.569,0 V 78.25 h -0.408 z"
   id="path3657"
   inkscape:connector-curvature="0"
   style="fill:#ffffff" />
		</g>
		<g
   id="g3659">
			<path
   d="m 91.764,80.821 c -0.616,0.021 -1.144,0.109 -1.621,0.26 v 0.86 c 0.422,-0.158 0.944,-0.28 1.646,-0.31 0.987,-0.03 2.103,0.252 3.278,0.55 0.997,0.264 2.048,0.51 3.131,0.589 V 81.977 C 97.204,81.895 96.2,81.65 95.273,81.393 94.027,81.081 92.858,80.786 91.764,80.821 z"
   id="path3661"
   inkscape:connector-curvature="0"
   style="fill:#1c4a92" />
			<path
   d="m 91.764,90.583 c -0.616,0.019 -1.144,0.106 -1.621,0.261 v 0.86 c 0.422,-0.167 0.944,-0.288 1.646,-0.3 0.98,-0.047 2.099,0.238 3.275,0.527 0.992,0.258 2.046,0.519 3.134,0.594 v -0.792 c -0.999,-0.072 -2,-0.321 -2.934,-0.578 -1.237,-0.308 -2.406,-0.61 -3.5,-0.572 z"
   id="path3663"
   inkscape:connector-curvature="0"
   style="fill:#1c4a92" />
			<path
   d="m 91.764,88.625 c -0.616,0.025 -1.144,0.11 -1.621,0.257 v 0.869 c 0.42,-0.167 0.944,-0.291 1.646,-0.314 0.988,-0.038 2.103,0.252 3.286,0.542 0.989,0.256 2.043,0.521 3.123,0.589 V 89.782 C 97.204,89.704 96.2,89.446 95.278,89.199 94.031,88.881 92.866,88.582 91.764,88.625 z"
   id="path3665"
   inkscape:connector-curvature="0"
   style="fill:#1c4a92" />
			<path
   d="m 91.764,82.771 c -0.616,0.022 -1.144,0.105 -1.621,0.256 v 0.864 c 0.42,-0.16 0.944,-0.279 1.646,-0.307 0.98,-0.033 2.094,0.243 3.271,0.548 0.993,0.264 2.051,0.505 3.139,0.586 V 83.924 C 97.2,83.848 96.191,83.592 95.259,83.346 94.02,83.027 92.858,82.727 91.764,82.771 z"
   id="path3667"
   inkscape:connector-curvature="0"
   style="fill:#1c4a92" />
			<path
   d="m 91.764,86.687 c -0.616,0.01 -1.144,0.087 -1.621,0.236 v 0.859 c 0.417,-0.158 0.937,-0.275 1.639,-0.284 0.988,-0.034 2.102,0.242 3.272,0.544 0.994,0.238 2.057,0.512 3.145,0.583 v -0.788 c -1.005,-0.078 -2.01,-0.33 -2.949,-0.579 -1.234,-0.315 -2.392,-0.609 -3.486,-0.571 z"
   id="path3669"
   inkscape:connector-curvature="0"
   style="fill:#1c4a92" />
			<path
   d="m 95.273,79.438 c -1.246,-0.311 -2.415,-0.588 -3.509,-0.554 -0.616,0.013 -1.144,0.097 -1.621,0.243 v 0.861 c 0.42,-0.162 0.944,-0.282 1.646,-0.307 0.987,-0.036 2.103,0.243 3.278,0.543 0.997,0.269 2.048,0.521 3.131,0.586 V 80.018 C 97.204,79.939 96.2,79.693 95.273,79.438 z"
   id="path3671"
   inkscape:connector-curvature="0"
   style="fill:#1c4a92" />
			<path
   d="m 82.27,89.206 c -0.973,0.241 -1.937,0.499 -2.943,0.577 v 0.793 c 1.097,-0.076 2.106,-0.339 3.142,-0.597 1.182,-0.29 2.26,-0.576 3.277,-0.542 0.703,0.023 1.238,0.14 1.657,0.31 v -0.863 c -0.484,-0.148 -1.013,-0.233 -1.626,-0.258 -1.124,-0.038 -2.265,0.257 -3.507,0.58 z"
   id="path3673"
   inkscape:connector-curvature="0"
   style="fill:#1c4a92" />
			<path
   d="m 82.289,87.258 c -0.983,0.249 -1.95,0.501 -2.963,0.583 v 0.784 c 1.104,-0.07 2.115,-0.344 3.162,-0.583 1.169,-0.302 2.25,-0.578 3.257,-0.544 0.703,0.009 1.238,0.125 1.657,0.292 v -0.86 c -0.484,-0.147 -1.016,-0.233 -1.626,-0.243 -1.114,-0.038 -2.255,0.256 -3.487,0.571 z"
   id="path3675"
   inkscape:connector-curvature="0"
   style="fill:#1c4a92" />
			<path
   d="m 91.764,84.728 c -0.616,0.019 -1.144,0.105 -1.621,0.257 v 0.859 c 0.42,-0.155 0.944,-0.279 1.646,-0.302 0.988,-0.038 2.103,0.242 3.286,0.549 0.989,0.25 2.043,0.499 3.123,0.582 V 85.886 C 97.204,85.807 96.2,85.553 95.273,85.302 94.031,84.984 92.866,84.686 91.764,84.728 z"
   id="path3677"
   inkscape:connector-curvature="0"
   style="fill:#1c4a92" />
			<path
   d="m 82.271,91.159 c -0.973,0.253 -1.938,0.502 -2.944,0.574 v 0.795 c 1.097,-0.076 2.107,-0.339 3.142,-0.598 1.182,-0.289 2.26,-0.575 3.277,-0.527 0.703,0.012 1.232,0.129 1.657,0.295 v -0.855 c -0.484,-0.155 -1.016,-0.242 -1.626,-0.261 -1.124,-0.037 -2.265,0.265 -3.506,0.577 z"
   id="path3679"
   inkscape:connector-curvature="0"
   style="fill:#1c4a92" />
			<path
   d="m 82.265,79.438 c -0.968,0.256 -1.932,0.505 -2.938,0.581 v 0.792 c 1.091,-0.065 2.106,-0.317 3.142,-0.586 1.182,-0.301 2.26,-0.579 3.277,-0.543 0.703,0.028 1.238,0.144 1.657,0.307 v -0.856 c -0.484,-0.151 -1.013,-0.234 -1.616,-0.248 -1.134,-0.035 -2.281,0.242 -3.522,0.553 z"
   id="path3681"
   inkscape:connector-curvature="0"
   style="fill:#1c4a92" />
			<path
   d="m 82.265,81.393 c -0.968,0.257 -1.932,0.509 -2.938,0.584 v 0.793 c 1.091,-0.079 2.106,-0.317 3.142,-0.589 1.182,-0.298 2.26,-0.58 3.277,-0.55 0.703,0.029 1.232,0.147 1.657,0.31 v -0.86 c -0.484,-0.151 -1.016,-0.239 -1.626,-0.26 -1.124,-0.035 -2.271,0.26 -3.512,0.572 z"
   id="path3683"
   inkscape:connector-curvature="0"
   style="fill:#1c4a92" />
			<path
   d="m 82.27,85.301 c -0.973,0.251 -1.937,0.505 -2.943,0.58 v 0.785 c 1.097,-0.076 2.106,-0.325 3.142,-0.58 1.182,-0.302 2.26,-0.582 3.277,-0.544 0.703,0.023 1.238,0.143 1.657,0.302 v -0.856 c -0.484,-0.155 -1.013,-0.242 -1.616,-0.26 -1.134,-0.042 -2.275,0.256 -3.517,0.573 z"
   id="path3685"
   inkscape:connector-curvature="0"
   style="fill:#1c4a92" />
			<path
   d="m 82.289,83.347 c -0.987,0.251 -1.956,0.502 -2.963,0.581 v 0.791 c 1.104,-0.074 2.115,-0.323 3.162,-0.586 1.169,-0.306 2.25,-0.582 3.257,-0.548 0.703,0.027 1.238,0.144 1.657,0.299 v -0.856 c -0.484,-0.15 -1.013,-0.234 -1.616,-0.256 -1.124,-0.045 -2.265,0.255 -3.497,0.575 z"
   id="path3687"
   inkscape:connector-curvature="0"
   style="fill:#1c4a92" />
		</g>
		<polygon
   points="96.369,133.82 98.839,133.318 97.783,135.582 99.679,137.15 97.27,137.768 97.233,140.24 95.288,138.715 93.287,140.24 93.242,137.768 90.849,137.15 92.747,135.582 91.731,133.318 94.151,133.82 95.288,131.605 "
   id="polygon3689"
   style="fill:#ffffff" />
		<polygon
   points="107.247,146.525 108.34,148.948 110.797,148.016 109.905,150.518 112.275,151.604 109.905,152.721 110.797,155.199 108.34,154.27 107.247,156.685 106.185,154.27 103.695,155.199 104.623,152.721 102.238,151.598 104.623,150.518 103.695,148.016 106.185,148.948 "
   id="polygon3691"
   style="fill:#ffffff" />
		<polygon
   points="105.23,128.934 105.187,126.443 102.786,125.853 104.687,124.256 103.625,122 106.084,122.515 107.171,120.294 108.303,122.515 110.742,122 109.72,124.256 111.615,125.853 109.214,126.443 109.166,128.934 107.171,127.417 "
   id="polygon3693"
   style="fill:#ffffff" />
		<polygon
   points="113.452,142.06 111.521,141.1 109.641,142.06 109.99,139.943 108.459,138.436 110.574,138.1 111.521,136.207 112.514,138.1 114.593,138.436 113.123,139.943 "
   id="polygon3695"
   style="fill:#ffffff" />
		<polygon
   points="121.272,130.526 120.136,132.407 121.272,134.275 119.064,134.25 118.021,136.139 116.953,134.25 114.75,134.275 115.881,132.407 114.75,130.526 116.953,130.564 118.021,128.662 119.064,130.564 "
   id="polygon3697"
   style="fill:#ffffff" />
		<path
   d="m 107.171,111.163 27.327,24.513 c 1.785,-3.416 3.085,-6.77 4.1,-9.945 L 107.171,97.518 75.81,125.73 c 1.002,3.176 2.303,6.529 4.097,9.945 l 27.264,-24.512 z"
   id="path3699"
   inkscape:connector-curvature="0"
   style="fill:#ffffff" />
		<path
   d="m 149.556,143.943 1.478,-9.125 -4.23,-3.793 c 0.445,-1.178 0.872,-2.363 1.21,-3.615 1.265,1.143 5.536,4.973 6.147,5.512 -1.261,3.889 -2.952,7.734 -4.605,11.021 z"
   id="path3701"
   inkscape:connector-curvature="0"
   style="fill:#ffffff" />
		<path
   d="m 147.512,146.99 c -0.412,-0.378 -0.999,-0.905 -1.669,-1.488 0.007,-0.015 0.015,-0.023 0.015,-0.035 0.963,-1.637 1.878,-3.304 2.677,-5.042 l -1.023,6.565 z"
   id="path3703"
   inkscape:connector-curvature="0"
   style="fill:#ffffff" />
		<path
   d="m 60.236,132.922 c 0.605,-0.539 4.887,-4.375 6.115,-5.512 0.386,1.26 0.814,2.431 1.254,3.605 l -4.236,3.803 1.467,9.103 c -1.66,-3.296 -3.35,-7.144 -4.6,-10.999 z"
   id="path3705"
   inkscape:connector-curvature="0"
   style="fill:#ffffff" />
		<path
   d="m 66.864,146.99 -1.011,-6.585 c 0.807,1.742 1.729,3.425 2.707,5.082 -0.656,0.581 -1.282,1.134 -1.696,1.503 z"
   id="path3707"
   inkscape:connector-curvature="0"
   style="fill:#ffffff" />
		<path
   d="m 143.397,146.709 c -7.833,12.473 -18.88,21.598 -31.973,26.395 0,0 -3.772,1.37 -4.253,1.551 -0.424,-0.181 -4.2,-1.552 -4.2,-1.552 -13.085,-4.788 -24.133,-13.921 -31.975,-26.402 -2.231,-3.586 -4.162,-7.466 -5.737,-11.485 0.678,-0.605 4.749,-4.282 5.957,-5.367 1.645,4.616 3.651,8.958 6.122,12.878 6.953,11.065 16.668,19.147 28.19,23.358 0.007,0 1.644,0.596 1.644,0.596 l 1.697,-0.596 c 11.519,-4.209 21.246,-12.293 28.164,-23.358 2.503,-3.938 4.512,-8.277 6.15,-12.878 1.172,1.085 5.271,4.762 5.955,5.367 -1.606,4.075 -3.541,7.954 -5.741,11.493 z"
   id="path3709"
   inkscape:connector-curvature="0"
   style="fill:#ffffff" />
		<path
   d="m 73.504,142.602 1.241,-1.373 -0.105,-0.422 c -0.237,-0.223 -0.462,-0.449 -0.688,-0.709 -1.285,0.23 -3.311,0.556 -4.221,0.596 l -0.243,-0.275 -0.239,0.137 c 0.127,0.211 0.239,0.424 0.354,0.637 0.134,0.253 0.262,0.515 0.395,0.766 l 0.233,-0.141 -0.103,-0.369 1.337,-0.309 0.716,1.258 c -0.243,0.311 -0.693,0.753 -0.962,1.008 l -0.261,-0.307 -0.256,0.143 c 0.177,0.314 0.362,0.617 0.543,0.929 0.159,0.296 0.328,0.604 0.489,0.912 l 0.258,-0.151 -0.123,-0.369 c 0.243,-0.348 1.05,-1.29 1.635,-1.961 z m -1.483,-1.569 1.713,-0.355 0.008,0.016 -1.181,1.305 -0.54,-0.966 z"
   id="path3711"
   inkscape:connector-curvature="0"
   style="fill:#1c4a92" />
		<path
   d="m 79.605,149.031 0.238,-0.18 c -0.163,-0.211 -0.333,-0.424 -0.487,-0.642 -0.161,-0.212 -0.306,-0.437 -0.455,-0.653 l -0.249,0.17 0.186,0.38 c -0.624,0.513 -2.239,1.72 -2.239,1.72 l -0.011,-0.008 c 0.407,-1.135 0.886,-2.443 1.31,-3.628 -0.148,-0.198 -0.297,-0.38 -0.442,-0.583 -0.136,-0.201 -0.26,-0.404 -0.392,-0.615 l -0.226,0.176 0.17,0.379 c -0.286,0.257 -0.595,0.496 -0.977,0.765 l -1.075,0.775 c -0.393,0.278 -0.709,0.485 -1.048,0.677 l -0.3,-0.293 -0.226,0.168 c 0.158,0.211 0.316,0.422 0.472,0.646 0.144,0.215 0.289,0.437 0.45,0.658 l 0.234,-0.174 -0.184,-0.382 c 0.623,-0.517 1.551,-1.175 2.283,-1.716 l 0.008,0.009 c -0.467,1.19 -0.898,2.433 -1.376,3.69 0.111,0.133 0.224,0.275 0.327,0.42 0.107,0.133 0.197,0.291 0.271,0.398 0.347,-0.283 0.804,-0.625 1.329,-1.018 l 1.039,-0.76 c 0.394,-0.273 0.724,-0.479 1.061,-0.68 l 0.309,0.301 z"
   id="path3713"
   inkscape:connector-curvature="0"
   style="fill:#1c4a92" />
		<path
   d="m 79.899,152.6 c -1.054,0.945 -0.936,2.367 -0.109,3.259 0.567,0.615 1.188,0.984 2.226,1.07 l 0.08,-0.536 c -0.605,-0.082 -1.03,-0.318 -1.303,-0.642 -0.635,-0.687 -0.675,-1.668 0.099,-2.392 0.779,-0.729 1.622,-0.488 2.126,0.051 0.24,0.252 0.438,0.673 0.514,1.029 l -0.238,0.279 0.213,0.248 c 0.254,-0.225 0.648,-0.451 0.967,-0.564 -0.226,-0.55 -0.494,-0.965 -0.891,-1.389 -1.1,-1.171 -2.625,-1.404 -3.684,-0.413 z"
   id="path3715"
   inkscape:connector-curvature="0"
   style="fill:#1c4a92" />
		<path
   d="m 88.68,157.857 c -1.237,-1.057 -2.683,-0.883 -3.527,0.125 -0.932,1.152 -0.714,2.444 0.519,3.486 1.282,1.057 2.698,0.881 3.515,-0.129 0.988,-1.142 0.759,-2.439 -0.507,-3.482 z m -0.415,2.698 c -0.632,0.753 -1.516,0.981 -2.186,0.426 -0.665,-0.547 -0.604,-1.45 0.038,-2.204 0.642,-0.759 1.523,-0.983 2.184,-0.425 0.629,0.545 0.562,1.447 -0.036,2.203 z"
   id="path3717"
   inkscape:connector-curvature="0"
   style="fill:#1c4a92" />
		<path
   d="m 95.182,162.608 c -0.267,-0.167 -0.547,-0.325 -0.822,-0.487 -0.278,-0.165 -0.553,-0.316 -0.822,-0.481 -0.223,-0.141 -0.449,-0.302 -0.68,-0.45 l -0.157,0.254 0.314,0.286 c -0.176,0.35 -0.367,0.683 -0.626,1.081 l -0.641,1.114 c -0.261,0.392 -0.48,0.703 -0.724,1.013 l -0.395,-0.152 -0.154,0.25 c 0.31,0.184 0.611,0.363 0.913,0.551 0.293,0.178 0.579,0.378 0.853,0.571 l 0.148,-0.251 -0.285,-0.281 c 0.149,-0.352 0.335,-0.695 0.597,-1.098 l 0.225,-0.348 0.287,0.185 c 0.074,0.675 0.145,1.81 0.19,2.618 0.415,0.194 0.847,0.407 1.245,0.662 l 0.157,-0.244 -0.128,-0.178 c -0.074,-0.31 -0.29,-1.932 -0.358,-2.379 0.628,0.266 1.277,0.158 1.602,-0.385 0.312,-0.52 0.323,-1.172 -0.739,-1.851 z m -0.321,1.229 c -0.287,0.446 -0.739,0.429 -1.292,0.088 -0.131,-0.075 -0.241,-0.163 -0.327,-0.243 l 0.196,-0.319 c 0.205,-0.325 0.393,-0.598 0.521,-0.763 0.173,0.072 0.301,0.145 0.551,0.293 0.467,0.287 0.565,0.601 0.351,0.944 z"
   id="path3719"
   inkscape:connector-curvature="0"
   style="fill:#1c4a92" />
		<path
   d="m 101.862,166.166 -0.338,-0.273 c -0.317,-0.043 -0.634,-0.087 -0.978,-0.172 -0.913,0.973 -2.31,2.43 -3.043,3.012 l -0.369,-0.079 -0.114,0.266 c 0.22,0.101 0.453,0.188 0.679,0.294 0.256,0.111 0.529,0.249 0.784,0.371 l 0.13,-0.268 -0.321,-0.229 0.897,-1.045 1.293,0.598 c -0.016,0.396 -0.105,1.002 -0.177,1.375 l -0.39,-0.094 -0.119,0.264 c 0.332,0.145 0.67,0.278 0.999,0.428 0.302,0.143 0.619,0.295 0.931,0.445 l 0.117,-0.27 -0.309,-0.229 c -0.018,-0.414 0.06,-1.654 0.147,-2.547 l 0.181,-1.847 z m -1.32,1.93 -1,-0.457 1.169,-1.306 0.014,0.007 -0.183,1.756 z"
   id="path3721"
   inkscape:connector-curvature="0"
   style="fill:#1c4a92" />
		<path
   d="m 114.824,169.672 c -0.195,-0.34 -0.354,-0.686 -0.528,-1.122 l -0.516,-1.185 c -0.193,-0.445 -0.337,-0.793 -0.457,-1.166 l 0.356,-0.232 -0.125,-0.27 c -0.328,0.15 -0.646,0.304 -0.965,0.434 -0.327,0.141 -0.653,0.27 -0.985,0.413 l 0.122,0.263 0.416,-0.098 c 0.191,0.345 0.362,0.688 0.561,1.123 l 0.524,1.192 c 0.196,0.438 0.328,0.789 0.458,1.161 l -0.349,0.234 0.115,0.27 c 0.333,-0.15 0.648,-0.303 0.95,-0.443 0.292,-0.143 0.626,-0.268 0.959,-0.402 l -0.124,-0.27 -0.412,0.098 z"
   id="path3723"
   inkscape:connector-curvature="0"
   style="fill:#1c4a92" />
		<path
   d="m 122.989,165.23 c -0.236,-0.318 -0.449,-0.639 -0.699,-1.045 l -0.632,-1.12 c -0.249,-0.401 -0.43,-0.737 -0.595,-1.087 l 0.322,-0.284 -0.158,-0.251 c -0.264,0.174 -0.528,0.34 -0.8,0.495 -0.264,0.16 -0.551,0.315 -0.825,0.474 0.157,0.583 0.609,2.828 0.704,3.301 -0.51,-0.354 -2.151,-1.756 -2.57,-2.17 -0.268,0.171 -0.534,0.336 -0.792,0.489 -0.268,0.158 -0.549,0.302 -0.821,0.46 l 0.156,0.246 0.367,-0.126 0.321,0.528 c 0.314,0.533 1.292,2.27 1.534,2.768 l -0.308,0.279 0.145,0.246 c 0.23,-0.135 0.451,-0.283 0.679,-0.42 0.232,-0.143 0.472,-0.266 0.71,-0.397 l -0.15,-0.251 -0.4,0.15 c -0.234,-0.316 -0.449,-0.638 -0.702,-1.047 l -0.369,-0.639 c -0.308,-0.557 -0.535,-0.947 -0.643,-1.145 l 0.009,-0.012 c 1.645,1.393 2.541,2.111 2.988,2.508 l 0.616,-0.363 -0.784,-3.841 0.008,-0.003 c 0.128,0.188 0.374,0.576 0.706,1.129 l 0.388,0.635 c 0.249,0.416 0.416,0.753 0.559,1.109 l -0.272,0.268 0.129,0.264 c 0.268,-0.189 0.567,-0.373 0.875,-0.559 0.305,-0.182 0.621,-0.35 0.928,-0.537 l -0.143,-0.248 -0.481,0.196 z"
   id="path3725"
   inkscape:connector-curvature="0"
   style="fill:#1c4a92" />
		<path
   d="m 127.395,161.969 c -0.274,-0.285 -0.534,-0.568 -0.842,-0.944 l -0.597,-0.728 c -0.252,-0.303 -0.537,-0.714 -0.761,-1.048 0.075,-0.121 0.209,-0.269 0.348,-0.397 0.451,-0.369 0.893,-0.326 1.192,0.046 0.311,0.364 0.39,0.815 -0.063,1.188 -0.101,0.076 -0.199,0.145 -0.292,0.186 l 0.219,0.562 c 0.193,-0.104 0.397,-0.245 0.581,-0.39 0.973,-0.777 0.998,-1.766 0.465,-2.416 -0.511,-0.619 -1.227,-0.672 -2.026,-0.02 -0.157,0.16 -0.379,0.348 -0.664,0.584 -0.271,0.246 -0.54,0.455 -0.751,0.622 -0.206,0.163 -0.465,0.358 -0.739,0.585 l 0.186,0.226 0.373,-0.2 c 0.274,0.275 0.53,0.564 0.84,0.928 l 0.771,1.013 c 0.309,0.372 0.534,0.677 0.756,1 l -0.271,0.321 0.183,0.23 c 0.274,-0.236 0.538,-0.464 0.82,-0.688 0.268,-0.211 0.553,-0.42 0.975,-0.75 l -0.194,-0.227 -0.509,0.317 z"
   id="path3727"
   inkscape:connector-curvature="0"
   style="fill:#1c4a92" />
		<path
   d="m 134.605,155.234 c -0.399,-0.125 -1.555,-0.604 -2.332,-0.993 l -1.703,-0.808 -0.369,0.223 c -0.149,0.275 -0.303,0.562 -0.494,0.864 0.609,1.18 1.508,3.005 1.828,3.887 l -0.209,0.31 0.218,0.201 c 0.159,-0.172 0.322,-0.359 0.499,-0.527 0.196,-0.203 0.415,-0.407 0.617,-0.613 l -0.207,-0.209 -0.324,0.23 -0.684,-1.193 1.024,-1.049 c 0.367,0.15 0.872,0.445 1.196,0.637 l -0.22,0.333 0.215,0.206 c 0.249,-0.259 0.491,-0.529 0.739,-0.786 0.249,-0.246 0.494,-0.489 0.743,-0.723 l -0.219,-0.202 -0.318,0.212 z m -3.419,0.883 -0.833,-1.551 0.007,-0.016 1.604,0.771 -0.778,0.796 z"
   id="path3729"
   inkscape:connector-curvature="0"
   style="fill:#1c4a92" />
		<path
   d="m 139.674,148.973 c -0.312,0.037 -1.979,0.105 -2.433,0.125 0.327,-0.587 0.279,-1.248 -0.242,-1.642 -0.447,-0.369 -1.097,-0.429 -1.885,0.575 -0.192,0.254 -0.387,0.515 -0.57,0.776 -0.193,0.259 -0.375,0.505 -0.561,0.745 -0.17,0.217 -0.344,0.43 -0.515,0.635 l 0.241,0.178 0.314,-0.287 c 0.339,0.215 0.648,0.426 1.038,0.719 l 1.043,0.785 c 0.387,0.286 0.639,0.541 0.925,0.809 l -0.198,0.375 0.24,0.178 c 0.209,-0.286 0.421,-0.572 0.632,-0.855 0.211,-0.279 0.44,-0.539 0.661,-0.822 l -0.244,-0.174 -0.301,0.279 c -0.341,-0.195 -0.657,-0.417 -1.047,-0.703 l -0.286,-0.262 0.191,-0.275 c 0.657,-0.012 1.811,0.03 2.641,0.057 0.226,-0.385 0.481,-0.787 0.778,-1.149 l -0.237,-0.178 -0.185,0.111 z m -3.381,0.769 c -0.101,0.113 -0.195,0.219 -0.281,0.299 l -0.302,-0.223 c -0.299,-0.227 -0.561,-0.441 -0.717,-0.574 0.093,-0.16 0.171,-0.281 0.344,-0.518 0.333,-0.432 0.659,-0.508 0.976,-0.256 0.385,0.325 0.357,0.766 -0.02,1.272 z"
   id="path3731"
   inkscape:connector-curvature="0"
   style="fill:#1c4a92" />
		<path
   d="m 142.414,140.957 c -1.327,-0.766 -2.526,-0.339 -3.363,1.07 -0.842,1.426 -0.428,2.797 0.708,3.46 1.257,0.761 2.524,0.335 3.364,-1.072 0.842,-1.411 0.434,-2.79 -0.709,-3.458 z m 0.14,3.139 c -0.437,0.742 -1.34,0.826 -2.165,0.319 -0.858,-0.499 -1.228,-1.323 -0.784,-2.065 0.446,-0.734 1.312,-0.812 2.166,-0.322 0.854,0.495 1.228,1.333 0.783,2.068 z"
   id="path3733"
   inkscape:connector-curvature="0"
   style="fill:#1c4a92" />
		<path
   d="m 107.171,169.1 c -0.506,0 -0.958,0.461 -0.958,1.004 0,0.564 0.452,1.031 0.958,1.031 0.569,0 1.034,-0.467 1.034,-1.031 0.001,-0.543 -0.465,-1.004 -1.034,-1.004 z"
   id="path3735"
   inkscape:connector-curvature="0"
   style="fill:#1c4a92" />
		<path
   d="m 69.963,137.276 c 0.545,0 1.01,-0.466 1.01,-1.002 0,-0.565 -0.465,-1.034 -1.01,-1.034 -0.538,0 -0.994,0.469 -0.994,1.034 0,0.537 0.456,1.002 0.994,1.002 z"
   id="path3737"
   inkscape:connector-curvature="0"
   style="fill:#1c4a92" />
		<path
   d="m 144.594,137.276 c 0.562,0 1.023,-0.466 1.023,-1.002 0,-0.565 -0.461,-1.034 -1.023,-1.034 -0.518,0 -0.992,0.469 -0.992,1.034 0,0.537 0.474,1.002 0.992,1.002 z"
   id="path3739"
   inkscape:connector-curvature="0"
   style="fill:#1c4a92" />
	</g>
	<g
   id="g3741">
		<path
   d="m 672,70.651 v 42.397 c 0,17.435 -7.156,25.556 -22.516,25.556 -17.797,0 -21.535,-13.896 -21.535,-25.556 V 70.651 h -5.188 v 42.397 c 0,20.012 8.992,30.155 26.723,30.155 18.383,0 27.705,-10.144 27.705,-30.155 V 70.651 H 672 z"
   id="path3743"
   inkscape:connector-curvature="0"
   style="fill:#231f20" />
		<path
   d="m 710.789,89.069 c -7.961,0 -14.875,4.284 -17.809,10.769 0,-2.356 0,-9.591 0,-9.591 h -4.598 v 51.29 h 4.598 v -27.705 c 0,-12.546 6.951,-20.651 17.707,-20.651 13.887,0 13.887,12.072 13.887,16.04 v 32.315 h 4.596 v -31.625 c 0,-5.698 0,-20.842 -18.381,-20.842 z"
   id="path3745"
   inkscape:connector-curvature="0"
   style="fill:#231f20" />
		<polygon
   points="740.557,90.247 740.557,141.537 745.162,141.537 745.162,90.247 744.727,90.247 "
   id="polygon3747"
   style="fill:#231f20" />
		<polygon
   points="740.557,74.557 740.557,81.474 745.162,81.474 745.162,74.557 744.727,74.557 "
   id="polygon3749"
   style="fill:#231f20" />
		<path
   d="m 790.816,90.247 c 0,0 -16.291,44.001 -16.875,45.572 -0.613,-1.556 -18.033,-45.572 -18.033,-45.572 h -5.256 l 20.652,51.29 h 5.207 l 19.355,-51.29 h -0.631 -4.419 z"
   id="path3751"
   inkscape:connector-curvature="0"
   style="fill:#231f20" />
		<path
   d="m 820.932,89.069 c -5.959,0 -11.178,2.097 -15.086,6.062 -4.961,5.027 -7.732,12.919 -7.609,21.65 -0.113,8.049 2.375,15.076 7.006,19.773 3.975,4.026 9.398,6.158 15.689,6.158 12.32,0 20.207,-6.607 22.207,-18.607 l 0.084,-0.506 h -4.6 l -0.064,0.354 c -1.742,9.173 -8.332,14.649 -17.627,14.649 -4.852,0 -8.916,-1.631 -12.078,-4.848 -3.842,-3.908 -6.023,-10.016 -6.023,-16.829 0,-0.033 0,-0.07 0,-0.105 0.846,0 40.689,0 40.689,0 l 0.018,-0.416 c 0.031,-0.648 0.047,-1.292 0.047,-1.927 0,-7.851 -2.332,-14.585 -6.652,-19.116 -3.984,-4.175 -9.367,-6.292 -16.001,-6.292 z m 0,4.113 c 11.406,0 17.605,9.75 17.963,19.529 -0.916,0 -35.023,0 -35.99,0 0.939,-9.783 7.343,-19.529 18.027,-19.529 z"
   id="path3753"
   inkscape:connector-curvature="0"
   style="fill:#231f20" />
		<path
   d="m 856.385,100.427 c 0,-2.191 0,-10.18 0,-10.18 h -4.598 v 51.29 h 4.598 v -27.999 c 0.4,-7.679 2.043,-10.593 5.57,-14.211 5.434,-5.318 11.752,-5.001 13.562,-4.778 l 0.488,0.061 v -4.635 l -0.416,-0.018 c -8.411,-0.364 -16.476,4.161 -19.204,10.47 z"
   id="path3755"
   inkscape:connector-curvature="0"
   style="fill:#231f20" />
		<path
   d="m 900.266,113.108 c 0.01,0.002 -1.553,-0.333 -1.553,-0.333 -7.645,-1.619 -14.863,-3.146 -14.863,-10.321 0,-6.839 7.271,-9.273 14.08,-9.273 5.355,0 14.357,1.611 14.473,12.418 l 0.006,0.432 H 917 v -0.436 c 0,-10.657 -6.771,-16.526 -19.07,-16.526 -4.381,0 -18.678,0.966 -18.678,13.386 0,11.168 10.236,13.237 17.709,14.747 l 1.324,0.267 c 8.018,1.617 15.59,3.144 15.59,10.881 0,9.254 -10.877,10.254 -15.553,10.254 -9.314,0 -15.689,-5.614 -16.238,-14.305 l -0.027,-0.408 h -4.584 l 0.012,0.448 c 0.287,11.331 8.273,18.374 20.838,18.374 4.729,0 20.148,-1.039 20.148,-14.363 0,-10.96 -8.246,-13.386 -18.205,-15.242 z"
   id="path3757"
   inkscape:connector-curvature="0"
   style="fill:#231f20" />
		<polygon
   points="927.904,90.247 927.904,141.537 932.498,141.537 932.498,90.247 932.064,90.247 "
   id="polygon3759"
   style="fill:#231f20" />
		<path
   d="m 1004.145,90.247 c 0,0 -16.232,43.245 -16.98,45.238 -0.803,-1.972 -18.42,-45.238 -18.42,-45.238 0,0 -15.623,0 -16.436,0 0,-0.823 0,-15.69 0,-15.69 h -0.434 -4.166 c 0,0 0,14.868 0,15.69 -0.793,0 -9.312,0 -9.312,0 v 4.11 c 0,0 8.52,0 9.312,0 0,0.851 0,34.774 0,34.774 -0.01,0.297 -0.016,0.587 -0.016,0.873 0,3.949 0.973,6.82 2.957,8.746 3.055,2.963 8.092,3.046 12.139,2.787 l 0.408,-0.027 v -4.094 l -0.447,0.012 c -4.17,0.115 -6.904,-0.131 -8.557,-1.734 -1.283,-1.252 -1.885,-3.336 -1.885,-6.562 0,0 0,-33.923 0,-34.774 0.801,0 12.266,0 12.801,0 0.223,0.527 19.416,46.153 19.547,46.461 -2.268,6.42 -3.635,10.143 -5.041,11.543 -2.377,2.385 -4.76,3.111 -10.186,3.111 h -0.436 v 4.11 h 0.436 c 5.615,0 9.225,-0.158 12.039,-2.345 2.176,-1.681 3.795,-5.277 6.02,-10.573 0.006,-0.013 21.812,-56.418 21.812,-56.418 h -5.155 z"
   id="path3761"
   inkscape:connector-curvature="0"
   style="fill:#231f20" />
		<polygon
   points="927.896,74.557 927.896,81.474 932.498,81.474 932.498,74.557 932.064,74.557 "
   id="polygon3763"
   style="fill:#231f20" />
	</g>
	<g
   id="g3765">
		<path
   d="m 300.742,142.496 c -20.231,-0.421 -37.242,-15.955 -36.719,-37.428 0.523,-16.891 14.096,-36.075 38.804,-35.341 17.197,0.316 36.504,13.242 35.982,37.007 -0.521,23.768 -20.663,36.284 -38.067,35.762 z m 0.724,-68.387 c -15.426,0 -26.185,11.363 -26.185,30.435 0,22.834 13.572,33.153 26.395,33.153 15.43,0 25.666,-11.873 25.666,-30.648 0.204,-20.117 -10.235,-32.94 -25.876,-32.94 z"
   id="path3767"
   inkscape:connector-curvature="0"
   style="fill:#231f20" />
		<path
   d="M 598.045,71.655 V 70.652 H 577.82 v 1.003 c 4.004,0.264 5.113,1.051 5.113,6.735 v 24.676 H 546.648 V 78.39 c 0,-5.684 1.104,-6.471 5.107,-6.735 v -1.003 h -20.223 v 1.003 c 4.002,0.264 5.106,1.051 5.106,6.735 v 55.411 c 0,5.693 -1.104,6.486 -5.106,6.748 v 0.988 h 20.223 v -0.988 c -4.004,-0.262 -5.107,-1.055 -5.107,-6.748 v -26.458 h 36.285 v 26.458 c 0,5.693 -1.109,6.486 -5.113,6.748 v 0.988 h 20.225 v -0.988 c -4.004,-0.262 -5.109,-1.055 -5.109,-6.748 V 78.39 c 0,-5.684 1.105,-6.472 5.109,-6.735 z"
   id="path3769"
   inkscape:connector-curvature="0"
   style="fill:#231f20" />
		<path
   d="m 344.164,70.652 v 1.003 c 3.896,0.211 5,0.634 5,4.732 v 57.414 c 0,5.693 -1.101,6.486 -5.105,6.748 v 0.988 h 15.266 v -0.988 c -4.002,-0.262 -5.115,-1.055 -5.115,-6.748 V 82.223 c 0,0.936 39.479,48.969 47.997,59.314 h 1.629 v -65.15 c 0,-4.098 1.107,-4.521 5.001,-4.732 v -1.003 h -15.008 v 1.003 c 3.897,0.211 5.009,0.634 5.009,4.732 v 45.042 L 357.655,70.652 h -13.491 z"
   id="path3771"
   inkscape:connector-curvature="0"
   style="fill:#231f20" />
		<path
   d="m 443.629,70.652 h -1.409 c -3.592,8.521 -20.172,47.779 -25.952,61.34 -1.002,2.324 -2.609,6.09 -3.808,7.396 -0.948,1.003 -1.845,1.108 -2.685,1.161 v 0.988 h 13.479 v -0.988 c -1.072,0 -3.386,-0.019 -3.552,-2.01 -0.01,-0.628 0.118,-1.315 0.387,-2.098 0.418,-1.257 3.133,-8.133 6.571,-15.954 h 27 c 2.654,6.595 5.085,12.235 6.212,14.737 l 0,0 c 0.317,0.74 1.005,2.471 1.005,3.314 0,1.957 -1.737,2.01 -3.688,2.01 v 0.988 h 18.842 v -0.988 c -2.317,-0.158 -3.056,-0.738 -4.74,-4.57 L 443.629,70.652 z M 428.432,116 c 4.587,-11.259 11.676,-29.187 11.676,-29.187 0,0 6.357,16.051 11.782,29.187 h -23.458 z"
   id="path3773"
   inkscape:connector-curvature="0"
   style="fill:#231f20" />
		<path
   d="m 181.522,70.652 v 1.003 c 2.183,0.12 3.465,0.329 4.198,1.184 0.216,0.338 0.422,0.683 0.553,1.052 0,0.004 0,0.007 0,0.007 0.13,0.362 0.173,0.754 0.201,1.138 0.036,0.404 0.055,0.85 0.055,1.351 v 57.414 c 0,5.693 -1.108,6.486 -5.11,6.748 v 0.988 h 15.114 v -0.988 c -4.003,-0.262 -5.107,-1.055 -5.107,-6.748 V 84.625 c 0,-0.943 -0.208,-2.715 -0.208,-2.715 l 0.94,2.715 24.482,56.65 h 1.488 l 25.007,-58.318 0.728,-2.405 c 0,0 -0.209,1.154 -0.209,2.195 V 133.8 c 0,5.693 -1.1,6.486 -5.103,6.748 v 0.988 h 20.224 v -0.988 c -4.005,-0.262 -5.106,-1.055 -5.106,-6.748 V 76.387 c 0,-4.098 1.102,-4.521 5,-4.732 v -1.003 h -15.738 l -22.622,53.483 -22.938,-53.483 h -15.849 z"
   id="path3775"
   inkscape:connector-curvature="0"
   style="fill:#231f20" />
		<path
   d="m 479.583,136.773 c 4.755,2.863 11.809,5.861 19.277,5.834 0.143,0 0.285,-0.002 0.427,-0.005 11.063,-0.155 22.723,-8.348 22.723,-21.25 0,-13.974 -9.8,-17.204 -19.703,-22.314 -10.005,-4.897 -14.178,-7.401 -14.178,-13.967 0,-4.483 2.713,-11.046 11.571,-11.046 2.82,0 5.297,0.716 7.446,1.844 7.173,3.982 7.525,9.617 8.453,13.19 h 1.047 l -0.609,-15.781 c -4.561,-1.903 -8.186,-2.762 -10.729,-3.139 -1.528,-0.197 -2.956,-0.287 -4.149,-0.287 -9.901,0 -21.575,5.942 -21.575,18.449 0,8.547 5.106,13.871 15.22,18.87 10.004,5.106 17.614,7.096 17.614,17.099 0,5.114 -2.914,13.963 -14.173,13.963 -4.494,0 -8.074,-1.559 -10.907,-3.912 -6.673,-6.31 -6.521,-11.311 -7.028,-13.176 h -1.041 l 0.314,15.628"
   id="path3777"
   inkscape:connector-curvature="0"
   style="fill:#231f20" />
	</g>
</g>
</svg>