<svg id="Layer_1" data-name="Layer 1" xmlns="http://www.w3.org/2000/svg" viewBox="0 0 597.72 648.24"><defs><style>.cls-1{fill:#0165a9;}.cls-2{fill:#0667a9;}.cls-3{fill:#eff5f8;}.cls-4{fill:#0d6bab;}.cls-5{fill:#0b6aaa;}.cls-6{fill:#116ead;}.cls-7{fill:#0a69a9;}.cls-8{fill:#0968a9;}.cls-9{fill:#0a69aa;}.cls-10{fill:#0969a9;}.cls-11{fill:#fafcfc;}</style></defs><title>monash</title><path class="cls-1" d="M80,31.27H520.47c0,1,0,2.12,0,3.23,0,75,.8,150-0.21,225-1.15,85.42-27.27,163-79.52,230.81C404.8,536.93,358.79,570.95,304,592.82a9.61,9.61,0,0,1-7.7,0c-38.61-15.31-72.81-37.53-103.07-65.86-47.35-44.33-77.8-98.93-96.5-160.46-10.06-33.11-16.21-67-16.36-101.69C80,195,80.07,125.15,80,55.33,80,47.37,80,39.41,80,31.27ZM132.18,431L300.1,280,467.94,430.58a374.31,374.31,0,0,0,24.78-59.88c0.25-.76-0.48-2.2-1.18-2.85-4.37-4.08-8.85-8-13.3-12L322,215.51c-7.23-6.49-14.47-13-21.77-19.49-0.7.54-1.28,0.92-1.79,1.37l-85.49,76.94Q161.4,320.68,109.85,367c-1.8,1.62-2.44,2.94-1.51,5.38,2.79,7.32,5,14.88,8,22.12C121.3,406.57,126.72,418.48,132.18,431Zm52.24-254.69a7.43,7.43,0,0,0,.25-1.11c0-33.07.05-66.14-.07-99.22a5.37,5.37,0,0,0-2.32-3.76c-5.94-3.72-12.6-4.21-19.34-3.37-4.28.53-8.49,1.65-12.73,2.48l-27.36,5.33V179c10,0.69,19.23-2.25,28.54-4.52C162.49,171.76,173.53,170.3,184.42,176.29Zm66.93,2.65V75.49c-11.21.7-21.49-2.87-32-5.25-8.47-1.92-16.9-2.81-25.21.61-3.07,1.26-4.94,2.93-4.91,7,0.21,31.09.11,62.18,0.11,93.27,0,1.62,0,3.24,0,4.74,3.77-1.1,7.27-2.4,10.89-3.12,8.77-1.74,17.22.47,25.64,2.57C234.19,177.33,242.43,179.66,251.35,178.95Zm-135.54,8v-109h-8.45V195.39h4.1q31.68,0,63.37,0a5.53,5.53,0,0,1,4.81,2,10.11,10.11,0,0,0,15,0,5.51,5.51,0,0,1,4.82-2q31.86,0.05,63.72,0h3.69V77.85h-8.68V186.93h-4c-19.48,0-39-.1-58.43-0.05-1.48,0-2.93,1.12-4.44,1.24a53.73,53.73,0,0,1-8.35.06c-1.5-.11-2.94-1.29-4.42-1.3-18.89-.05-37.78,0-56.67.05h-6.07Zm300.12-17.57c0-2,0-3.68,0-5.3,0-22.76.07-45.52,0-68.27a146.44,146.44,0,0,0-1.12-17.17,55.43,55.43,0,0,0-7.08-21.3,62,62,0,0,0-8.29,31c-0.22,25.57-.14,51.14-0.18,76.71,0,1.38,0,2.76,0,4.21h-6.84a5.82,5.82,0,0,1,.17-1.31c1-2.33.34-4.51-1.73-5.4-1.4-.6-4.2-0.41-5,0.54a7.19,7.19,0,0,0-1.07,5.66c0.86,3.06,3.78,3.92,6.76,4,3.16,0.08,6.32,0,9.68,0a49.15,49.15,0,0,0,1.34,31.49l-18.7-6a10.2,10.2,0,0,0-.66,1.27,23,23,0,0,0-.58,2.33l20.38,5.9c0.63,1.93.86,4.18,2.05,5.65,0.66,0.81,3.71,1,4.32.26,1.36-1.57,1.85-3.89,2.93-6.44,6.21-1.35,13.52-2.38,20.08-6.28l-1.5-3.17c-5.68,2.69-11.26,5.11-17.82,5.5a51.69,51.69,0,0,0,.81-30.47c3.47,0,6.68.33,9.77-.11,2.17-.31,4.89-1.16,6.06-2.73s1.06-4.47.3-6.28c-0.43-1-3.46-1.69-5.06-1.35-2.56.55-3.08,2.88-2.53,5.36a8.67,8.67,0,0,1,0,1.74h-6.5ZM269.58,528.15l14.63,7-5.54,15.24L294,544.8l6.59,14.81,6.8-14.8,15.13,5.59-5.4-15.23,14.53-7-14.51-6.78,5.33-15.36-15.06,5.59-6.83-14.81L294,511.67l-15.3-5.56,5.58,15.37ZM249.07,415.8c-4.38.89-8.06,1.49-11.66,2.41-2.5.64-4,.4-5.11-2.35-1.37-3.52-3.31-6.82-5.2-10.64-2.06,4-4.06,7.43-5.64,11.06-1,2.21-2.2,2.58-4.35,2.06-3.7-.9-7.46-1.56-11.94-2.47l6.14,13.92-11.61,9.7c4.06,1.07,7.52,2.25,11.07,2.85,3.07,0.52,4,1.94,3.75,4.91-0.26,3.53-.06,7.09-0.06,11.59l12.63-9.56,12.15,9.34V443.46l15-4c-3.59-3-6.6-5.58-9.75-8-1.47-1.13-1.78-2.1-.91-3.82C245.43,424,247,420.22,249.07,415.8Zm78.54-45.67c-3.64-3.07-6.68-5.74-9.85-8.26-1.44-1.14-1.75-2.13-.9-3.85,1.8-3.63,3.35-7.38,5.27-11.67l-15,3-7-13.6-6.78,13.59-15.08-3,6.39,13.87L273,370.12c4.43,1.1,8.13,2.15,11.89,2.9,2.35,0.47,3.33,1.4,3.16,4-0.25,3.86-.07,7.75-0.07,12.3,3.82-3,7-5.25,9.89-7.76,1.64-1.4,2.8-1.46,4.49,0,3.07,2.57,6.36,4.86,10.32,7.84V373.83l7.24-1.8Zm39.09,63.36c1.91-3.46,3.45-6.63,5.37-9.54a5.12,5.12,0,0,1,3.46-2c3.56-.26,7.16-0.09,11.32-0.09-2.09-3.47-3.76-6.52-5.71-9.39a3.49,3.49,0,0,1,0-4.43c1.88-2.9,3.61-5.9,5.63-9.22-4.06,0-7.57.2-11-.1a5.63,5.63,0,0,1-3.71-2.17c-1.94-2.89-3.46-6.05-5.33-9.42-1.94,3.42-3.5,6.57-5.47,9.44a5.66,5.66,0,0,1-3.71,2.16c-3.46.3-7,.1-10.92,0.1,2,3.41,4,6.43,5.59,9.63a4.63,4.63,0,0,1,0,3.66c-1.62,3.18-3.58,6.19-5.69,9.74,4.21,0,7.81-.14,11.39.08a4.69,4.69,0,0,1,3.22,1.76C363.05,426.65,364.64,429.8,366.7,433.49Zm-58.91,13.78c2.8,2.8,4.88,5.22,7.32,7.2,2,1.62,2.12,3.38,1.69,5.58-0.58,3-1,6.07-1.62,9.71,3.55-1.81,6.37-3.48,9.38-4.68a6.6,6.6,0,0,1,4.48,0c3.21,1.27,6.24,3,9.7,4.7-0.55-3.81-1.21-7.15-1.43-10.51a6.09,6.09,0,0,1,1.28-4.2c2.32-2.42,5.05-4.44,7.62-6.62l-0.86-1.17c-3.33-.57-6.7-0.94-10-1.79a6.61,6.61,0,0,1-3.55-2.64c-1.79-2.79-3.19-5.83-5-9.3-1.67,3.31-3.17,5.93-4.33,8.7a5.49,5.49,0,0,1-5,3.6C314.5,446.14,311.52,446.7,307.79,447.27ZM461.34,174.61c9.21,0.45,15.69-4.12,17.16-12.11C470.23,162.44,463.35,167.3,461.34,174.61Zm-6.75-85.54c1.44-9.17-1.85-15.77-9.27-18.58C443.17,77.3,447.64,86.67,454.59,89.07Zm24.75,21.28c-6,3.74-9.66,14.38-5.56,20.37C481.08,125.53,482.18,118.59,479.33,110.35ZM332,127.85c-0.94,9.31,2.84,15.62,10.76,18.26C343.41,137.58,339.27,130.41,332,127.85Zm19-26.31c6.1-4.23,8.42-15,4.41-20.42C349,86,347.76,91.71,351,101.54Zm-14.75,8.79c-3.64,8.35-1.43,15.91,5.82,20.32C344.74,122.47,343,116.14,336.27,110.33ZM345,178.61c3.76,7.16,10.53,9.77,19.41,7.49C361,179.2,350.64,175.94,345,178.61Zm92.5,16.63c7,4.18,16.66,2.6,20.81-3.42A16.54,16.54,0,0,0,437.52,195.25Zm-83.64-20.49c-2.71-7.89-9.42-12.62-17-12.19C338.63,170.52,344.1,174.5,353.88,174.76Zm116.75-59.35c5.48-7.5,5.61-14.57.37-20.75C465.83,101.16,465.68,109.1,470.62,115.41ZM469,161.31c9.85-3.11,13.59-7.54,13.49-15.76C474.17,147.62,469.43,153.07,469,161.31Zm-5.06-59.82c3.79-8.68,2.3-15.42-4.41-20.58C456.32,87.94,457.92,95.72,463.9,101.49Zm-86.14,93.8c-6.11-6.23-13.92-7.4-21.16-3.34C362,197.86,370,199.2,377.76,195.29Zm73-9.12c9.25,2,16.48-1,19.23-7.71C462.28,176.35,455.86,178.86,450.8,186.17ZM346.41,161.36c-1.42-9.54-5.35-14-13.73-15.78C332.38,153.11,336.94,158.43,346.41,161.36Zm126.4-14.94c8.67-4.81,12.24-11.66,9.93-18.63C475.32,131.76,472,137.82,472.8,146.42ZM360.92,89.2c7.18-3.64,11.4-12.89,8.44-18.89C362.46,74.76,358.56,80.44,360.92,89.2Zm14.29,89c-1.11,7.38,4,15.15,11.35,17.24C387.35,187.41,382.53,180.1,375.21,178.25Zm64.65-.19c-7.52,2.72-12.67,11.13-10.74,17.57C436.62,192.45,441,185.34,439.86,178.06Zm-95.13-62.43c4.56-7.67,4.34-14.75-.53-21.07C339.17,101.59,339.27,107.48,344.73,115.63Zm24.52-28.47C377.94,86,384,81,385,74.32,375.85,73.68,371.74,79.4,369.25,87.16Zm61.06-12.78c1.07,6.86,8.45,13,15.9,12.63-1-1.67-2-3.21-2.75-4.86C440.82,76.5,436.71,74,430.31,74.38ZM347.71,153.1c1.75-2.7,3.12-5.77,5.33-8,3.14-3.2,2.9-6.43,1.68-10.18C347,139.3,343.76,148,347.71,153.1Zm8.36-5.85c-6.45,5.21-7.75,15.88-2.61,19.2,1-2.92,1.6-6.16,3.2-8.76C359.05,153.83,357.76,150.69,356.07,147.25Zm6.11,31.1c0.37-3.41.48-6.67,1.13-9.81a8.32,8.32,0,0,0-3.76-9.35C355.38,167.11,356.55,175.74,362.18,178.35Zm-16.93-39.91c2.22-2,4.28-4.5,6.91-6.06,4-2.35,4.37-5.83,4.53-9.78C348.58,124.39,342.72,132.94,345.25,138.44Zm103.21,30.06c-2.11,2.85-4.54,4.83-5.16,7.27-1,3.91-.78,8.12-1.07,12.14C448.4,185.9,451.4,177.89,448.47,168.51ZM467.62,153c3.75-5.19-.52-15.72-8.4-18,0.56,3.18.46,6.22,1.67,8.59C462.6,146.9,465.27,149.77,467.62,153ZM437.76,92.62c4.78,7.79,12.92,2.9,19.47,5.81C454.61,91.59,444.89,89,437.76,92.62Zm15.73,85.57c5.65-2.5,6.79-13.63,1.21-19.71-1.13,3-2.89,5.59-3,8.26C451.66,170.49,452.84,174.27,453.49,178.19Zm-92.36-67.11c-9.16.62-16.72,7.71-14.36,13.07,2.35-1.46,4.54-3.44,7.1-4.27C358.25,118.47,360.06,115.38,361.13,111.08Zm-10.31-.69c3.26-1,6.3-2.49,9.45-2.81,4.55-.46,6-3.56,7.91-6.9C359.52,99.43,351.27,104.2,350.82,110.38Zm107,11.88c0.92,3.18,1,6.29,2.54,8.1,2.71,3.17,6.35,5.54,9.58,8.22C472.11,132.61,467.18,125.35,457.86,122.26Zm4,44.32c4.92-4.45,3.4-15.17-3.56-19.56-0.21,3.19-1,6.11-.43,8.75C458.65,159.45,460.44,162.92,461.84,166.58ZM358.56,97.9c3.08-.22,6.24-0.95,9.24-0.55,4.55,0.6,6.94-2,9.73-4.79C369,89.28,360.06,91.92,358.56,97.9Zm105.69,12.25c-0.59-6.18-8.84-10.93-17.39-9.33,2,2.58,3,5.65,6.53,6.48S460.54,109.16,464.25,110.14Zm-9.77.8c0.61,9.21,9.88,8.54,14.29,14C469.39,117.77,463.52,112.3,454.48,110.94ZM373,187.83c-0.43-3.36-1.33-6.49-1.1-9.55,0.34-4.43-2.42-6.4-5.19-8.9C363.88,177.52,367,186.22,373,187.83Z" transform="translate(-1.34 -31.27)"/><path class="cls-2" d="M517.07,378l19.11,17.14,10.59-32.42,19.82,17.95c10.17,9.21,20.29,18.47,30.57,27.56,2,1.77,2.27,3.26,1.49,5.71-11.31,35.67-27.32,69.22-45.7,101.71a10.57,10.57,0,0,1-.92,1.11l-18.78-16.9c-7.93,11.4-15.45,23-23.72,34C460.91,598.57,398.86,645.17,322.23,672c-6.63,2.32-13.19,4.82-19.83,7.1a6.58,6.58,0,0,1-4,.21c-31.83-11.21-63.23-23.3-92.3-40.83-51.88-31.29-94.22-72.46-128-122.59-3.53-5.23-6.89-10.57-10.56-16.22L48.11,516.92c-2-3.68-4-7.19-5.9-10.72-16-29.6-30.16-60-40.46-92.16-0.85-2.66-.38-4.08,1.67-5.9,16.19-14.44,32.24-29,48.34-43.56,0.6-.54,1.26-1,2.06-1.66L64.38,395l19-17c2.35,6.68,4.49,13,6.81,19.31,17.74,48.1,43.71,91.2,79,128.48,36.14,38.2,78.91,66.41,128.64,83.82a7.61,7.61,0,0,0,4.66,0A317.68,317.68,0,0,0,418,539.13c46.1-43.68,77.48-96.56,97.52-156.5C516,381.2,516.47,379.79,517.07,378Zm4.19,16.57c-0.4,1-.68,1.63-0.91,2.27C500,453.71,468.79,503.67,425,545.49A325.64,325.64,0,0,1,301.83,620a6.1,6.1,0,0,1-3.63-.08,321.56,321.56,0,0,1-71.42-34.17c-59.13-38.21-102.45-90.1-132.1-153.63C89,419.95,84.25,407.36,79,394.86c-0.49.4-1.14,0.87-1.74,1.41-10.63,9.57-21.21,19.2-31.93,28.67-2.19,1.93-2.54,3.5-1.43,6.24a424,424,0,0,0,62,106.57c30.49,38.13,66.53,69.88,108.71,94.59,24.05,14.09,49.69,24.53,75.79,34.1,6.76,2.48,12.44,2.62,19.27.13,25.34-9.24,50.28-19.26,73.7-32.77,55.21-31.82,99.55-75,134.48-128.14,15.64-23.77,28.34-49,39-75.37,0.62-1.52,1.25-2.74-.49-4.27C544.71,415.71,533.16,405.25,521.27,394.58ZM38.72,479l1-.27c-0.13-1.27-.21-2.55-0.41-3.81-2.51-15.71-5-31.42-7.65-47.1-0.39-2.27.32-3.38,1.85-4.73q10.95-9.63,21.69-19.48c0.8-.73,1.77-2.24,1.52-3-2.28-7-4.82-13.84-7.36-21-12.18,10.94-24.15,21.62-36,32.46-0.83.76-1,3-.59,4.21,4.06,11.08,8.1,22.18,12.61,33.08C29.54,459.42,34.26,469.18,38.72,479Zm521.75,1.11a5.24,5.24,0,0,0,.87-0.8A449.51,449.51,0,0,0,588,415.27a4,4,0,0,0-1.12-3.36c-8.82-8.07-17.76-16-26.67-24l-9.16-8.24c-2.32,6.73-4.4,13.18-6.8,19.51-0.83,2.18-.3,3.36,1.3,4.77,7.22,6.35,14.28,12.87,21.54,19.18a5,5,0,0,1,1.81,5.18c-1.81,10.62-3.54,21.26-5.28,31.89C562.59,466.71,561.58,473.23,560.48,480.16ZM46.83,460.85l-0.36.12,6.05,39.14,10.39-9.33Zm507,1-0.55-.12-15.7,29.18L547.93,500Z" transform="translate(-1.34 -31.27)"/><path class="cls-3" d="M450.8,186.17" transform="translate(-1.34 -31.27)"/><path class="cls-3" d="M470,178.46" transform="translate(-1.34 -31.27)"/><path class="cls-4" d="M129.13,105.79v-5c11.83-2.41,23.68-5,35.6-7.15,3-.55,6.31,0,9.44.36,5,0.59,5.08.83,4.31,6.41-13.23-4.53-25.51,1-38.12,3.54C136.72,104.63,133,105.14,129.13,105.79Z" transform="translate(-1.34 -31.27)"/><path class="cls-4" d="M129,117.77v-5.13c12.37-2.42,24.69-4.95,37.08-7.16,2.57-.46,5.36.11,8,0.43,5,0.59,5,.67,4.39,6.41-13.36-4.46-25.73,1.12-38.44,3.66C136.55,116.67,133,117.13,129,117.77Z" transform="translate(-1.34 -31.27)"/><path class="cls-5" d="M178.43,88.37c-12.22-4.18-23.73.29-35.43,2.89-4.43,1-8.92,1.72-13.76,2.64V88.64c11.68-2.31,23.43-4.79,35.24-6.87,3.15-.55,6.54-0.11,9.78.26C179.19,82.59,179.34,83,178.43,88.37Z" transform="translate(-1.34 -31.27)"/><path class="cls-5" d="M178.46,148.33c-10.38-3.64-20.13-.81-29.94,1.49-6.34,1.49-12.72,2.77-19.4,4.22v-5.4c12.06-2.41,24.14-5,36.3-7.16,2.91-.52,6.08,0,9.09.46C179.24,142.6,179.25,142.76,178.46,148.33Z" transform="translate(-1.34 -31.27)"/><path class="cls-5" d="M178.55,136.29c-11.34-3.75-21.92-.21-32.61,2.28-5.45,1.27-11,2.23-16.78,3.39v-5.28c11.94-2.38,23.82-4.87,35.76-7,2.93-.53,6.07-0.08,9.09.22C179.11,130.39,179.12,130.51,178.55,136.29Z" transform="translate(-1.34 -31.27)"/><path class="cls-5" d="M178.47,124.33c-12.22-4.22-23.7.36-35.39,2.89-4.52,1-9.11,1.68-14,2.56v-5c11.69-2.39,23.3-4.93,35-7,3.26-.59,6.77-0.14,10.12.26C179.2,118.55,179.27,118.85,178.47,124.33Z" transform="translate(-1.34 -31.27)"/><path class="cls-5" d="M178.46,160.25c-14.6-4.76-28,2-41.92,4.3-2.39.39-4.8,0.69-7.42,1.07v-5c12.27-2.41,24.59-4.95,37-7.15,2.69-.48,5.62.06,8.38,0.47C179.19,154.62,179.25,154.85,178.46,160.25Z" transform="translate(-1.34 -31.27)"/><path class="cls-4" d="M195.77,100.38c-0.7-5.7-.65-5.7,4.43-6.5,7.45-1.17,14.66.08,21.87,1.82,7.48,1.81,15,3.5,22.82,5.31v5.09c-7.48-1.63-14.76-3.08-22-4.84C214,99.11,205.11,97.23,195.77,100.38Z" transform="translate(-1.34 -31.27)"/><path class="cls-4" d="M244.94,113v5.1c-7.62-1.68-14.92-3.16-22.15-4.91-8.82-2.14-17.61-4-26.58-1-1.7-4.29-1.13-5.5,3-6.23a49,49,0,0,1,20.17,1.09C227.82,109.11,236.24,111,244.94,113Z" transform="translate(-1.34 -31.27)"/><path class="cls-4" d="M195.79,124.34c-0.75-5.56-.59-5.78,4.36-6.49,7.43-1.06,14.67,0,21.88,1.83,7.57,1.9,15.2,3.57,23,5.38v5.08c-8.35-1.84-16.42-3.47-24.41-5.44C212.43,122.69,204.31,121.58,195.79,124.34Z" transform="translate(-1.34 -31.27)"/><path class="cls-5" d="M195.78,148.32c-0.68-5.74-.61-5.83,4.42-6.53,7.31-1,14.43,0,21.53,1.74,7.68,1.92,15.42,3.62,23.25,5.45v5c-7.57-1.65-14.85-3.11-22.06-4.85C214,147,205.13,145.08,195.78,148.32Z" transform="translate(-1.34 -31.27)"/><path class="cls-5" d="M195.67,87.48C195,82.73,195.19,82,200.44,82a152.31,152.31,0,0,1,21.86,1.88c7.57,1.22,15,3.33,22.68,5.11V94c-5.7-1.13-11.16-2.14-16.58-3.29-5.59-1.18-11.11-3-16.76-3.6C206.52,86.53,201.25,87.28,195.67,87.48Z" transform="translate(-1.34 -31.27)"/><path class="cls-5" d="M195.79,135.92c-0.81-5.16-.62-5.41,4.26-6.09,8.17-1.13,16.06.4,23.93,2.35,6.9,1.71,13.85,3.21,21,4.86v5c-6.77-1.42-13.3-3-19.89-4.12-7-1.24-14-2.34-21.07-3.06C201.34,134.56,198.54,135.52,195.79,135.92Z" transform="translate(-1.34 -31.27)"/><path class="cls-5" d="M195.88,159.87c-1-4.75-.77-5.17,3.8-6,7.41-1.27,14.65-.11,21.86,1.64,7.7,1.87,15.43,3.59,23.41,5.44v4.88c-5.77-1.17-11.39-2.39-17-3.42-7.45-1.35-14.89-2.81-22.4-3.67C202.38,158.42,199.1,159.46,195.88,159.87Z" transform="translate(-1.34 -31.27)"/><path class="cls-6" d="M407.87,67a67.69,67.69,0,0,1,4.51,24.54c0.16,23.71.06,47.41,0.06,71.12,0,0.69-.11,1.37-0.19,2.25h-4.37V67Z" transform="translate(-1.34 -31.27)"/><path class="cls-5" d="M365.42,611.55c2.46,4.24,4.77,8.58,7.49,12.64,0.69,1,2.7,1.18,4.77,2-3,1.86-5.55,3.42-8.11,4.92a1.26,1.26,0,0,1-1.17-.08,3.25,3.25,0,0,1-.21-1.46c0-1.33.37-2.86-.15-4a105.9,105.9,0,0,0-5.43-9.84c-1.94-3.15-2.72-7.44-8.37-7.95l10.66-6.29,15.78,13.31c-1.4-6.51-2.5-12-3.78-17.46-0.5-2.14-.14-3.44,2-4.41s4-2.38,6.08-3.51a5.43,5.43,0,0,1,1.82-.27c0,0.59-.1,1.18-0.09,1.77,0,1.14-.35,2.48.14,3.37,2.63,4.83,5.41,9.59,8.26,14.29,1.81,3,1.91,2.92,5.18,2.27,0.17,2-5.72,6.22-10.48,7.58,1.23-8.06-5.54-12.48-8.65-18.6q2,9.44,3.91,18.89c0.34,1.64.63,3-1.31,4.16s-2.88.46-4.23-.69c-4.47-3.79-9-7.49-13.54-11.22l-1-.57Z" transform="translate(-1.34 -31.27)"/><path class="cls-7" d="M221.33,610.24l2.5,16c-6-.9-8.27-3.18-8.71-8.62-0.24-2.91-.37-5.84-0.69-8.75a24.32,24.32,0,0,0-1.3-4c-1.72,2.77-3.23,4.6-4,6.69-0.65,1.72-.44,3.77-0.65,6l-11.08-7c9-3.41,10-12.55,14.78-18.76,0.36-.47-0.11-1.58-0.23-2.39-0.1-.64-0.25-1.28-0.59-2.93,6.31,3.91,11.86,7,17.06,10.67,3.87,2.69,4.64,5.76,3.22,9.07s-3.94,4.44-8.78,3.92A13.1,13.1,0,0,0,221.33,610.24Zm-7.33-7c3.38,0.7,6,1.54,8.53,1.57,0.81,0,2.59-2.77,2.28-3.3-1.3-2.21-3.23-4-5.29-6.43Z" transform="translate(-1.34 -31.27)"/><path class="cls-8" d="M480.4,520.07c3.44,3.41,6,7.27,11.27,6.1l-8.14,10.48c-2.71-9.87-12.53-11.48-17.59-17.42l-4,1.07-0.36-.81c3.66-4.82,7.18-9.75,11-14.44,3.1-3.8,6.43-4.74,9.48-3.25,3.48,1.71,4.49,4.75,3.31,10a3.27,3.27,0,0,0,.23,1l17-1a75.8,75.8,0,0,1-4.63,6.88c-0.58.69-2.05,0.89-3.12,0.88-3.74,0-7.48-.27-11.22-0.27A13.56,13.56,0,0,0,480.4,520.07Zm-3.28-1.62c2.18-2.13,4.27-4.27,3.13-7.38-0.43-1.19-2.65-2.94-3.13-2.68a51.13,51.13,0,0,0-6.69,4.85Z" transform="translate(-1.34 -31.27)"/><path class="cls-9" d="M523.67,475c0,9.06-7.94,18-15.88,18S493,486.35,493,478.65c0-9,8-18.23,15.74-18.26C516.82,460.36,523.71,467.1,523.67,475Zm-5.28,3c0-5.15-6.2-10.4-12.19-10.36a7.73,7.73,0,0,0-7.9,7.65c-0.06,5.09,6.1,10.56,12,10.66A8.07,8.07,0,0,0,518.4,478Z" transform="translate(-1.34 -31.27)"/><path class="cls-8" d="M179,593.25c-8.74,0-17.66-8.5-17.68-16.8a14.59,14.59,0,0,1,14.35-14.31c8.51,0,18,8.89,17.93,16.79C193.59,586.28,186.46,593.27,179,593.25Zm-3.81-5.73c5.4,0.33,11.3-5.51,11.57-11.44a7.82,7.82,0,0,0-7.29-8.27c-5.1-.31-11.41,5.9-11.71,11.53A8,8,0,0,0,175.2,587.52Z" transform="translate(-1.34 -31.27)"/><path class="cls-5" d="M92.93,504.39c2.81-1,5-1.32,6.75-2.4,3.48-2.15,6.77-4.63,10.05-7.09,2.38-1.78,5.75-2.93,4.2-7.62,5.68,4.42,6.6,7.44,4.66,12.81-1.86,5.13-3.65,10.28-5.06,15.71,4.16-4.06,11.12-5.1,12.49-13.09l6.16,8.36a5.61,5.61,0,0,1-.78.94c-3.79-1.88-6.17,1-8.72,2.75-5,3.47-9.79,7.17-14.63,10.74-3.47-2.76-4.13-5.72-2.29-9.79,2.44-5.38,4.2-11.08,6.56-17.46-4.54,3.4-8.39,6.21-12.14,9.16a4.3,4.3,0,0,0-.87,2.22,14.15,14.15,0,0,0-.23,2.05l-0.9.26Z" transform="translate(-1.34 -31.27)"/><path class="cls-7" d="M400,578.64c5.26-4.32,10.28-8.7,15.59-12.68a6.9,6.9,0,0,1,8.83.17,8.76,8.76,0,0,1,3.53,9c-0.89,4.68-4.24,7.35-9.2,10.32,0.27-2.19,0-4,.71-4.87,2.75-3.3,3-5.24.38-7.83-2.25-2.22-4.76-1.91-7.61,1-0.4.4-.71,0.89-1.37,1.74l12.95,16,4.36-1.24,0.45,1.16-10.94,8.78a4.35,4.35,0,0,1-.88-1c1.83-3.07-.57-4.84-2.09-6.81-2.72-3.52-5.53-7-8.31-10.45-1.3-1.64-2.54-3.39-5.11-2.2A4.34,4.34,0,0,1,400,578.64Z" transform="translate(-1.34 -31.27)"/><path class="cls-5" d="M82.56,488.34L76.1,476.88l0.52-.73,3.21,1.1c0.84-2.58,6.38-3.1,4.11-7.26-4-7.34-1.25-6.26-10.6-4.1l-0.47,2.76-0.94.37-4.7-8.37a2.39,2.39,0,0,1,.58-0.66C76.1,462.16,84,458.87,92,458.13c1.7-.16,4-0.34,5.1.58,4.88,4,4.76,5,.52,9.7-3.76,4.17-7.55,8.34-11.05,12.72C85,483.14,84,485.66,82.56,488.34Zm5-19.31,7-7.83-10.13,2.19Z" transform="translate(-1.34 -31.27)"/><path class="cls-5" d="M449,558.59c2.4,3,2.29,7.69,7.8,6.86l-7.39,6.91c-1.09-8.84-6.86-16.32-10.13-24.8-0.66-1.72,1-4.75,2.37-6.67,0.56-.81,3.23-0.89,4.54-0.35,6.15,2.56,12.11,5.59,18.26,8.16,1.75,0.73,3.91.48,5.86,0.76a10.85,10.85,0,0,1,2.27,1.19c-3.15,2.9-5.95,5.55-8.88,8.05-0.31.27-2-.49-2-0.57,0.79-4.13-3.29-3.38-5.06-4.8-0.42-.34-2.39,1-3.5,1.82C451.72,556.18,450.44,557.41,449,558.59Zm-6.5-12.16,4.8,8.66,4.45-4.17Z" transform="translate(-1.34 -31.27)"/><path class="cls-5" d="M266.94,647.66l-12.44-5.37c1.56-1.31,3.16-2,3.54-3.14,0.62-1.81,1.31-4.89.42-5.67a16.39,16.39,0,0,0-7.62-3.43c-0.91-.17-2.62,2.19-3.42,3.69-0.63,1.18-.44,2.81-0.7,4.87L237,634.25c9-3.44,13.2-10.75,19.13-16.08,1.71-1.54,2.74-3.81,6.07-2.89,5.43,1.5,5.45,1.17,4.93,6.86-0.57,6.29-1.13,12.59-1.46,18.89C265.57,642.81,266.32,644.63,266.94,647.66Zm-6.72-27.55-0.72-.28-6,6.84,5.8,2.63Z" transform="translate(-1.34 -31.27)"/><path class="cls-7" d="M160.72,545.26l-6.32,3.68c0-7.6-2.43-13.22-11.05-12.27-4.58.51-8,5.36-8.06,9.83-0.08,5.13,3.5,9,10.62,11.21l-0.18,2.92a5.59,5.59,0,0,1-1.21.18c-7.5-.85-13-4.56-15.74-11.67-2.24-5.77-.45-11.58,4.34-15.45a14.46,14.46,0,0,1,17.07-1A24.91,24.91,0,0,1,160.72,545.26Z" transform="translate(-1.34 -31.27)"/><path class="cls-10" d="M337.87,644.91c3.28-4,.21-7.14-1.09-10.44s-2.83-6.41-4.32-9.58c-1-2.05-1.48-4.71-5.11-3.29,1.46-2.93,10.18-6.67,12.87-5.74-2.81,1.88-1.6,4.06-.66,6.22,1.62,3.75,3.21,7.52,4.87,11.26,1.2,2.7,1.63,6.14,6.2,5.78l-0.23,1-11.65,5.36Z" transform="translate(-1.34 -31.27)"/><path class="cls-8" d="M523.88,434a6.06,6.06,0,0,1,6-6.34,6.34,6.34,0,1,1,0,12.68A6.07,6.07,0,0,1,523.88,434Z" transform="translate(-1.34 -31.27)"/><path class="cls-8" d="M71.56,440.32a6.34,6.34,0,0,1,0-12.68A6.34,6.34,0,1,1,71.56,440.32Z" transform="translate(-1.34 -31.27)"/><path class="cls-8" d="M306.51,641.92a6.19,6.19,0,0,1-6.25,6.24,6.13,6.13,0,0,1-6.16-6.31A6.21,6.21,0,1,1,306.51,641.92Z" transform="translate(-1.34 -31.27)"/><path class="cls-11" d="M365.42,611.55l-0.46-1.1,1,0.57Z" transform="translate(-1.34 -31.27)"/></svg>